<svg xmlns="http://www.w3.org/2000/svg" xmlns:xlink="http://www.w3.org/1999/xlink" width="45.732" height="33.049" viewBox="0 0 45.732 33.049">
  <defs>
    <clipPath id="clip-path">
      <rect id="Rectangle_59" data-name="Rectangle 59" width="45.732" height="33.049" fill="#1a1a1a"/>
    </clipPath>
  </defs>
  <g id="Groupe_11" data-name="Groupe 11" transform="translate(0 0.003)">
    <g id="Groupe_10" data-name="Groupe 10" transform="translate(0 -0.003)" clip-path="url(#clip-path)">
      <path id="Tracé_16" data-name="Tracé 16" d="M45.732,30.632a12.318,12.318,0,0,1-.587,1.173,3.1,3.1,0,0,1-2.587,1.24q-13.145,0-26.289,0H3.236A2.923,2.923,0,0,1,.092,30.768.608.608,0,0,0,0,30.632v-1.25c.07-.014.081-.07.1-.129A3.487,3.487,0,0,1,1.68,27.235q9.973-6.5,19.94-13A.72.72,0,0,0,22,13.523c-.023-1.071-.01-2.143-.008-3.215,0-.859.235-1.145,1.083-1.185a3.731,3.731,0,0,0,3.39-2.812,3.733,3.733,0,0,0-3.136-4.545,3.69,3.69,0,0,0-4.066,2.823c-.067.3-.081.617-.131.924a.788.788,0,0,1-.9.768.813.813,0,0,1-.8-.887A5.046,5.046,0,0,1,17.652,3.9a5.438,5.438,0,1,1,6.529,6.841c-.353.091-.471.228-.454.6.034.743.025,1.489,0,2.232a.649.649,0,0,0,.345.641q9.663,6.278,19.32,12.564a4.74,4.74,0,0,1,2.337,2.7Zm-22.871.78q9.691,0,19.382,0a3.716,3.716,0,0,0,.622-.04,1.411,1.411,0,0,0,1.169-1.141,1.244,1.244,0,0,0-.533-1.36c-.139-.111-.291-.207-.44-.3q-9.924-6.449-19.844-12.9a.536.536,0,0,0-.7,0Q13.207,21.782,3.881,27.884c-.485.318-.973.63-1.451.958a1.374,1.374,0,0,0,.736,2.568c.134.007.268,0,.4,0H22.861" transform="translate(0 0.003)" fill="#1a1a1a"/>
    </g>
  </g>
</svg>
