<svg xmlns="http://www.w3.org/2000/svg" width="327.381" height="291.602" viewBox="0 0 327.381 291.602">
  <g id="undraw_building_blocks_re_5ahy" transform="translate(0)">
    <path id="Tracé_6402" data-name="Tracé 6402" d="M56.608,616l-.285-.106a35.1,35.1,0,0,1-20.675-21.058,34.053,34.053,0,0,1-1.769-8.357l-.023-.272.268.048c3.205.575,6.57.893,8.069,1.017l-8.41-5.565.015-.289a6.657,6.657,0,0,1,4.472-5.97,6.771,6.771,0,0,1,7.368,1.81c.836.908,1.72,1.821,2.575,2.7,2.938,3.036,5.975,6.175,7.9,9.881a21.215,21.215,0,0,1,.427,18.258l.073,7.9Z" transform="translate(-19.058 -324.398)" fill="#f2f2f2"/>
    <path id="Tracé_6403" data-name="Tracé 6403" d="M470.641,615.461l0-.03a89.383,89.383,0,0,0-4.5-24.256l0-.013a5.084,5.084,0,0,1,.129-2.419,4.777,4.777,0,0,1,5.326-3.237,10.25,10.25,0,0,0,7.021-1.2,4.994,4.994,0,0,1,4.421-.293,4.629,4.629,0,0,1,2.736,3.134c.029.112.054.224.075.339a71.278,71.278,0,0,0,4.5,24.279l0,.01a5.092,5.092,0,0,1-1.3,4.444,4.729,4.729,0,0,1-3.787,1.391,16.8,16.8,0,0,0-7.941,1.567,4.588,4.588,0,0,1-3.127.219A5.051,5.051,0,0,1,470.641,615.461Z" transform="translate(-262.916 -329.252)" fill="#d4c2b5"/>
    <path id="Tracé_6404" data-name="Tracé 6404" d="M291.366,391.766v108.4h75.94v-108.4a3.644,3.644,0,0,0-2.568-3.488,3.355,3.355,0,0,0-1.089-.169H295.034a3.66,3.66,0,0,0-3.668,3.653ZM321,429.012a8.107,8.107,0,0,1,16.213,0v12.577a8.107,8.107,0,0,1-16.213,0Z" transform="translate(-164.372 -218.949)" fill="#f2f2f2"/>
    <path id="Tracé_6405" data-name="Tracé 6405" d="M290.833,637.246V647.7a2.057,2.057,0,0,0,2.04,2.05H365.2a2.05,2.05,0,0,0,2.04-2.05V637.246Z" transform="translate(-164.071 -359.498)" fill="#e6e6e6"/>
    <path id="Tracé_6406" data-name="Tracé 6406" d="M17.277,9.5V207.421a9.52,9.52,0,0,0,9.512,9.512h293.3a9.52,9.52,0,0,0,9.512-9.512V9.5A9.524,9.524,0,0,0,320.085,0H26.789a9.524,9.524,0,0,0-9.512,9.5Z" transform="translate(-9.747)" fill="#e6e6e6"/>
    <path id="Tracé_6407" data-name="Tracé 6407" d="M326.537,15.762H38.135a5.1,5.1,0,0,0-5.084,5.094V213.872a5.093,5.093,0,0,0,5.084,5.084h288.4a5.092,5.092,0,0,0,5.084-5.084V20.856a5.1,5.1,0,0,0-5.084-5.094ZM253.787,152.891a5.051,5.051,0,0,1-4.519,2.77l-.03,0q-4.147-.578-8.325-.762a5.026,5.026,0,0,1,1.127,1.115,4.729,4.729,0,0,1,.677,3.977,16.8,16.8,0,0,0,.092,8.093,4.588,4.588,0,0,1-.355,3.114,5.051,5.051,0,0,1-4.519,2.77l-.03,0a89.385,89.385,0,0,0-19.93-.531c-.026.168-.059.335-.1.5a16.8,16.8,0,0,0,.092,8.093,4.588,4.588,0,0,1-.355,3.114,5.051,5.051,0,0,1-4.519,2.77l-.03,0a89.38,89.38,0,0,0-20.466-.482,19.057,19.057,0,0,0,.526,5.06,4.588,4.588,0,0,1-.355,3.114,5.051,5.051,0,0,1-4.519,2.77l-.03,0a89.384,89.384,0,0,0-24.67,0h-.013a5.085,5.085,0,0,1-2.355-.568,4.777,4.777,0,0,1-2.211-5.827,12.352,12.352,0,0,0,.549-2.152,89.381,89.381,0,0,0-22.557.266h-.013a5.085,5.085,0,0,1-2.355-.568,4.777,4.777,0,0,1-2.211-5.827,10.25,10.25,0,0,0,.1-7.122,4.993,4.993,0,0,1,0-3.349,89.381,89.381,0,0,0-16.88.739h-.013a5.084,5.084,0,0,1-2.355-.568,4.777,4.777,0,0,1-2.211-5.827,10.25,10.25,0,0,0,.1-7.122,5,5,0,0,1,.519-4.4,4.63,4.63,0,0,1,3.581-2.119c.115-.008.23-.012.347-.012a71.979,71.979,0,0,0,8.66.978,4.794,4.794,0,0,1-1.877-5.632,10.25,10.25,0,0,0,.1-7.122,5,5,0,0,1,.519-4.4c.037-.056.08-.106.118-.16q-3.1.214-6.185.643H116.9a5.084,5.084,0,0,1-2.355-.568,4.777,4.777,0,0,1-2.211-5.827,10.25,10.25,0,0,0,.1-7.122,5,5,0,0,1,.519-4.4,4.63,4.63,0,0,1,3.581-2.119c.115-.008.23-.012.347-.012a71.832,71.832,0,0,0,10.423,1.049,4.862,4.862,0,0,1-.589-4.4,10.25,10.25,0,0,0,.1-7.122,5,5,0,0,1,.519-4.4,4.63,4.63,0,0,1,3.581-2.119c.115-.008.23-.012.347-.012a71.971,71.971,0,0,0,8.813.987,4.872,4.872,0,0,1-.286-3.9,10.25,10.25,0,0,0,.1-7.122,5,5,0,0,1,.519-4.4,4.63,4.63,0,0,1,3.581-2.119c.115-.008.23-.012.347-.012a71.835,71.835,0,0,0,10.379,1.048,4.876,4.876,0,0,1-.108-3.522,10.25,10.25,0,0,0,.1-7.122,5,5,0,0,1,.519-4.4,4.63,4.63,0,0,1,3.581-2.119c.115-.008.23-.012.347-.012a71.277,71.277,0,0,0,24.693,0h.01a4.735,4.735,0,0,0,1.911,0h.01a71.277,71.277,0,0,0,24.693,0c.117,0,.232,0,.347.012A4.63,4.63,0,0,1,214.4,70.62a5,5,0,0,1,.519,4.4,10.25,10.25,0,0,0,.1,7.122,4.876,4.876,0,0,1-.108,3.522A71.834,71.834,0,0,0,225.3,84.616c.117,0,.232,0,.347.012a4.63,4.63,0,0,1,3.581,2.119,5,5,0,0,1,.519,4.4,10.249,10.249,0,0,0,.1,7.122,4.872,4.872,0,0,1-.286,3.9,71.971,71.971,0,0,0,8.813-.987c.117,0,.232,0,.347.012a4.63,4.63,0,0,1,3.581,2.119,5,5,0,0,1,.519,4.4,10.25,10.25,0,0,0,.1,7.122,4.862,4.862,0,0,1-.595,4.4,5.022,5.022,0,0,1,1.022,1.036,4.729,4.729,0,0,1,.677,3.977,16.8,16.8,0,0,0,.092,8.093,4.588,4.588,0,0,1-.355,3.114,5.124,5.124,0,0,1-.637.961q3.06-.269,6.106-.8h.01a5.092,5.092,0,0,1,4.132,2.091,4.729,4.729,0,0,1,.677,3.977,16.8,16.8,0,0,0,.092,8.093A4.588,4.588,0,0,1,253.787,152.891Z" transform="translate(-18.645 -8.892)" fill="#fff"/>
    <path id="Tracé_6408" data-name="Tracé 6408" d="M334.3,73.987H64.444a1.073,1.073,0,0,1,0-2.146H334.3a1.073,1.073,0,0,1,0,2.146Z" transform="translate(-35.763 -40.529)" fill="#e6e6e6"/>
    <path id="Tracé_6409" data-name="Tracé 6409" d="M344.584,396.989l-.03,0a89.387,89.387,0,0,0-24.67,0h-.013a5.084,5.084,0,0,1-2.355-.568,4.777,4.777,0,0,1-2.211-5.827,10.25,10.25,0,0,0,.1-7.122,5,5,0,0,1,.519-4.4,4.63,4.63,0,0,1,3.581-2.119c.115-.008.23-.012.347-.012a71.278,71.278,0,0,0,24.693,0h.01a5.092,5.092,0,0,1,4.132,2.091,4.729,4.729,0,0,1,.677,3.977,16.8,16.8,0,0,0,.092,8.093,4.588,4.588,0,0,1-.355,3.114A5.051,5.051,0,0,1,344.584,396.989Z" transform="translate(-177.715 -212.648)" fill="#d4c2b5"/>
    <path id="Tracé_6410" data-name="Tracé 6410" d="M388.875,317.841l-6.584-5.448c-4.937,2.588-12.45,12.92-12.45,12.92L352.51,337.777a3.773,3.773,0,1,0,3.539,5.487L379.6,330.82Z" transform="translate(-196.839 -176.234)" fill="#ffb8b8"/>
    <path id="Tracé_6411" data-name="Tracé 6411" d="M413.719,274.539h0a9.017,9.017,0,0,1-.14,13.877l-4.187,3.4s-10.443,15.034-15.879,16.778l-13.956,7.291-6.293-6.309,12.648-10.308s5.817-5.5,6.4-9.53c.357-2.467,4.532-9.186,8.716-14.17a8.994,8.994,0,0,1,12.676-1.045Z" transform="translate(-210.575 -153.669)" fill="#3f3d56"/>
    <path id="Tracé_6412" data-name="Tracé 6412" d="M423.676,621.975h-5.948l-2.83-22.943h8.779Z" transform="translate(-234.061 -337.939)" fill="#ffb6b6"/>
    <path id="Tracé_6413" data-name="Tracé 6413" d="M411.842,653.112H393.551v-.231a7.12,7.12,0,0,1,7.12-7.12h0l3.341-2.535,6.234,2.535h1.6Z" transform="translate(-222.019 -362.871)" fill="#2f2e41"/>
    <path id="Tracé_6414" data-name="Tracé 6414" d="M507.485,565.778l-2.817,5.239-21.548-8.372,4.158-7.732Z" transform="translate(-272.548 -313.05)" fill="#ffb6b6"/>
    <path id="Tracé_6415" data-name="Tracé 6415" d="M535.459,581.654l-8.662,16.11-.2-.11a7.12,7.12,0,0,1-2.9-9.642h0l-.65-4.143,5.185-4.29.756-1.406Z" transform="translate(-294.958 -326.172)" fill="#2f2e41"/>
    <path id="Tracé_6416" data-name="Tracé 6416" d="M402.44,410.61l-5.25,42,2.625,14.081,47.249,20.7,2.625-8.531c-12.077-7.39-24.988-18.575-33.123-19.4,0,0-.675-7.453,5.153-12.053,1.176-.928.919-2.184,1.394-3.322.327-.783,1.628-1.6,1.961-2.4.432-1.04-.1-2.074.332-3.132.244-.594,1.169-.632,1.412-1.227.414-1.015.143-2.586.546-3.589.862-2.143,1.69-4.238,2.446-6.2,2.354-6.114,4.011-10.958,3.8-12-.656-3.281-31.171-4.922-31.171-4.922Z" transform="translate(-224.072 -231.643)" fill="#2f2e41"/>
    <path id="Tracé_6417" data-name="Tracé 6417" d="M403.606,506.691l-2.746,17.736,6.932,36.2h9.187c3.3-12.162,3.471-28.147.328-41.671Z" transform="translate(-226.142 -285.846)" fill="#2f2e41"/>
    <path id="Tracé_6418" data-name="Tracé 6418" d="M413.364,276.906l4.235-7.38,4.547-3.648,8.531-1.312,2.37,1.822h0a60.6,60.6,0,0,1,8.882,44.178l-.666,3.606-.423,2.289.183,2.736-1.424,3.983.2,2.917.1,1.558.105,1.563.146,2.182c.262,1.246-1.058,1.081-.872,2.179.328,1.928,1.8,4.785-.436,4.794l-23.1-4.794c-5.869.024-11.332-6.974-5.666-12.64Z" transform="translate(-229.998 -149.253)" fill="#3f3d56"/>
    <circle id="Ellipse_118" data-name="Ellipse 118" cx="11.217" cy="11.217" r="11.217" transform="translate(182.962 90.822)" fill="#ffb8b8"/>
    <path id="Tracé_6419" data-name="Tracé 6419" d="M429.175,227.583a28.829,28.829,0,0,0,4.9-.343c1.608-.327,5.2-2.962,6.206-4.548h0a14.16,14.16,0,0,0,1.49-4.354,12.886,12.886,0,0,0-2.254-10.23,4.071,4.071,0,0,0-1.644-1.4c-.059-.023-.12-.043-.181-.061a5.023,5.023,0,0,1-2.5-1.546,4.143,4.143,0,0,0-.415-.427,6.187,6.187,0,0,0-2.581-1.3c-1.535-.411-3.755,0-6.6,1.213a6.943,6.943,0,0,1-4.2.129.394.394,0,0,0-.37.127,2.778,2.778,0,0,1-1.888.753c-.43.019-.881.614-1.426,1.39-.124.176-.268.382-.372.507l-.014-.24-.243.268a3.371,3.371,0,0,0,1.522,5.492,6.575,6.575,0,0,0,1.322.211c.271.024.55.05.819.1a5.082,5.082,0,0,1,3.777,3.3,1.329,1.329,0,0,0,2.006.645,2.2,2.2,0,0,1,2-.364,1.458,1.458,0,0,1,.644.731,1.9,1.9,0,0,0,.721.841c1.089.562,1.164,3.05.773,5.124-.377,2-1.123,3.446-1.813,3.517-.531.055-.592.093-.631.187l-.034.084.06.079A2.171,2.171,0,0,0,429.175,227.583Z" transform="translate(-234.805 -114.645)" fill="#2f2e41"/>
    <path id="Tracé_6420" data-name="Tracé 6420" d="M355.584,217.989l-.03,0a89.386,89.386,0,0,0-24.67,0h-.013a5.084,5.084,0,0,1-2.355-.568,4.777,4.777,0,0,1-2.211-5.827,10.25,10.25,0,0,0,.1-7.122,5,5,0,0,1,.519-4.4,4.63,4.63,0,0,1,3.581-2.119c.115-.008.23-.012.347-.012a71.276,71.276,0,0,0,24.693,0h.01a5.092,5.092,0,0,1,4.132,2.091,4.729,4.729,0,0,1,.677,3.977,16.8,16.8,0,0,0,.092,8.093,4.588,4.588,0,0,1-.355,3.114A5.051,5.051,0,0,1,355.584,217.989Z" transform="translate(-183.92 -111.666)" fill="#d4c2b5"/>
    <path id="Tracé_6421" data-name="Tracé 6421" d="M377.09,256.742l4.642-7.175c-3.147-4.6-14.286-10.855-14.286-10.855l-14.4-15.756a3.773,3.773,0,1,0-5.036,4.155l15.11,21.933Z" transform="translate(-194.937 -123.999)" fill="#ffb8b8"/>
    <path id="Tracé_6422" data-name="Tracé 6422" d="M407.465,275.84h0a9.016,9.016,0,0,1-13.8,1.483l-3.87-3.76s-16.22-8.47-18.588-13.665l-10.628-15.075,7.126-6.429,12.386,11.26s5.7,6.595,9.771,6.7c2.492.066,9.653,3.427,15.092,7a8.993,8.993,0,0,1,2.519,12.467Z" transform="translate(-203.419 -134.488)" fill="#3f3d56"/>
    <path id="Tracé_6423" data-name="Tracé 6423" d="M181.969,639.808l-.03,0a89.387,89.387,0,0,0-24.67,0h-.013a5.084,5.084,0,0,1-2.355-.568,4.777,4.777,0,0,1-2.211-5.827,10.25,10.25,0,0,0,.1-7.122,5,5,0,0,1,.519-4.4,4.629,4.629,0,0,1,3.581-2.119c.115-.008.23-.012.347-.012a71.28,71.28,0,0,0,24.693,0h.01a5.092,5.092,0,0,1,4.132,2.091,4.729,4.729,0,0,1,.677,3.977,16.8,16.8,0,0,0,.092,8.093,4.588,4.588,0,0,1-.355,3.114A5.051,5.051,0,0,1,181.969,639.808Z" transform="translate(-85.977 -349.632)" fill="#d4c2b5"/>
    <path id="Tracé_6424" data-name="Tracé 6424" d="M197.969,597.808l-.03,0a89.387,89.387,0,0,0-24.67,0h-.013a5.084,5.084,0,0,1-2.355-.568,4.777,4.777,0,0,1-2.211-5.827,10.25,10.25,0,0,0,.1-7.122,5,5,0,0,1,.519-4.4,4.63,4.63,0,0,1,3.581-2.119c.115-.008.23-.012.347-.012a71.275,71.275,0,0,0,24.693,0h.01a5.092,5.092,0,0,1,4.132,2.091,4.729,4.729,0,0,1,.677,3.977,16.8,16.8,0,0,0,.092,8.093,4.588,4.588,0,0,1-.355,3.114A5.052,5.052,0,0,1,197.969,597.808Z" transform="translate(-95.003 -325.938)" fill="#d4c2b5"/>
    <path id="Tracé_6425" data-name="Tracé 6425" d="M95.094,605.908l.019-.024a89.386,89.386,0,0,0,13.823-20.434l.007-.011a5.083,5.083,0,0,1,1.79-1.632,4.777,4.777,0,0,1,6.065,1.434,10.249,10.249,0,0,0,5.841,4.075,5,5,0,0,1,3.354,2.9,4.629,4.629,0,0,1-.252,4.153q-.087.149-.185.294a71.277,71.277,0,0,0-13.839,20.451l-.006.008a5.092,5.092,0,0,1-4.047,2.25,4.729,4.729,0,0,1-3.674-1.668,16.8,16.8,0,0,0-6.755-4.459,4.587,4.587,0,0,1-2.381-2.039A5.051,5.051,0,0,1,95.094,605.908Z" transform="translate(-53.153 -329.047)" fill="#d4c2b5"/>
    <path id="Tracé_6426" data-name="Tracé 6426" d="M326.865,665.941.516,666.074a.519.519,0,0,1,0-1.038l326.348-.134a.519.519,0,0,1,0,1.038Z" transform="translate(0 -375.1)" fill="#cacaca"/>
    <g id="Groupe_5716" data-name="Groupe 5716" transform="translate(66.161 15.96)">
      <ellipse id="Ellipse_119" data-name="Ellipse 119" cx="3.686" cy="3.768" rx="3.686" ry="3.768" fill="#3f3d56"/>
      <ellipse id="Ellipse_120" data-name="Ellipse 120" cx="3.686" cy="3.768" rx="3.686" ry="3.768" transform="translate(12.733)" fill="#3f3d56"/>
      <ellipse id="Ellipse_121" data-name="Ellipse 121" cx="3.686" cy="3.768" rx="3.686" ry="3.768" transform="translate(25.466)" fill="#3f3d56"/>
      <path id="Tracé_6427" data-name="Tracé 6427" d="M248.207,44.387a.434.434,0,0,1-.312-.131l-2.487-2.542a.436.436,0,0,1,0-.61l2.487-2.542a.436.436,0,0,1,.623.61l-2.189,2.237,2.189,2.238a.436.436,0,0,1-.312.741Z" transform="translate(-204.536 -37.641)" fill="#3f3d56"/>
      <path id="Tracé_6428" data-name="Tracé 6428" d="M261.015,44.386a.436.436,0,0,1-.312-.741l2.189-2.238L260.7,39.171a.436.436,0,0,1,.623-.61l2.487,2.542a.436.436,0,0,1,0,.61l-2.487,2.542a.435.435,0,0,1-.312.131Z" transform="translate(-213.164 -37.64)" fill="#3f3d56"/>
      <path id="Tracé_6429" data-name="Tracé 6429" d="M552.868,37.619h-4.625a.954.954,0,0,0-.955.955V43.2a.954.954,0,0,0,.955.955h4.625a.958.958,0,0,0,.959-.955V38.573A.958.958,0,0,0,552.868,37.619Z" transform="translate(-374.91 -37.183)" fill="#3f3d56"/>
      <path id="Tracé_6430" data-name="Tracé 6430" d="M526.868,37.619h-4.624a.954.954,0,0,0-.955.955V43.2a.954.954,0,0,0,.955.955h4.624a.958.958,0,0,0,.959-.955V38.573A.958.958,0,0,0,526.868,37.619Z" transform="translate(-360.242 -37.183)" fill="#3f3d56"/>
      <path id="Tracé_6431" data-name="Tracé 6431" d="M577.368,38.119h-4.625a.954.954,0,0,0-.954.955V43.7a.954.954,0,0,0,.954.955h4.625a.958.958,0,0,0,.959-.955V39.073A.958.958,0,0,0,577.368,38.119Z" transform="translate(-388.731 -37.465)" fill="#3f3d56"/>
      <path id="Tracé_6432" data-name="Tracé 6432" d="M375.316,42.159H338.351a1.164,1.164,0,1,0,0,2.327h36.965a1.164,1.164,0,1,0,0-2.327Z" transform="translate(-256.382 -39.744)" fill="#3f3d56"/>
    </g>
  </g>
</svg>
