<svg id="illu-2" xmlns="http://www.w3.org/2000/svg" xmlns:xlink="http://www.w3.org/1999/xlink" width="228.321" height="243.216" viewBox="0 0 228.321 243.216">
  <defs>
    <clipPath id="clip-path">
      <rect id="Rectangle_154" data-name="Rectangle 154" width="228.321" height="243.216" fill="none"/>
    </clipPath>
  </defs>
  <g id="Groupe_84" data-name="Groupe 84" clip-path="url(#clip-path)">
    <path id="Tracé_151" data-name="Tracé 151" d="M107.227,285.705c-15.991,0-34.369-17.745-50.629-9.314C7.367,301.919,14.144,259.2,0,243.315l.465-.931c15.606,13.993,35.09,25.378,56.347,32.924,19.21,6.819,38.563,9.98,55.961,9.145l.03,1.119q-2.756.133-5.576.133" transform="translate(0 -146.473)" fill="#f2f2f2"/>
    <path id="Tracé_152" data-name="Tracé 152" d="M396.06,84.573c-12.748,9.655-38.112,6.6-45.983,23.143-23.832,50.074-44.221,11.93-65.088,7.8L284.8,114.5c20.889,1.732,43.295-.956,64.8-7.775,19.43-6.161,36.766-15.327,50.132-26.5l.7.874q-2.117,1.77-4.365,3.472" transform="translate(-172.103 -48.481)" fill="#f2f2f2"/>
    <path id="Tracé_153" data-name="Tracé 153" d="M84.44,141c1.846,0,3.342,2.007,3.342,4.482s-1.5,4.482-3.342,4.482-3.342-2.007-3.342-4.482S82.595,141,84.44,141" transform="translate(-49.008 -85.207)" fill="#e6e6e6"/>
    <path id="Tracé_154" data-name="Tracé 154" d="M439.44,247c1.846,0,3.342,2.007,3.342,4.482s-1.5,4.482-3.342,4.482-3.342-2.007-3.342-4.482,1.5-4.482,3.342-4.482" transform="translate(-263.535 -149.263)" fill="#e6e6e6"/>
    <path id="Tracé_155" data-name="Tracé 155" d="M207.44,0c1.846,0,3.342,2.007,3.342,4.482s-1.5,4.482-3.342,4.482S204.1,6.958,204.1,4.482,205.595,0,207.44,0" transform="translate(-123.337)" fill="#e6e6e6"/>
    <path id="Tracé_156" data-name="Tracé 156" d="M336.067,306.7a4.736,4.736,0,0,1,1.065-7.182L330.974,270.2l8.162,3.138,4.725,28.012a4.761,4.761,0,0,1-7.794,5.353Z" transform="translate(-200.008 -163.282)" fill="#ffb8b8"/>
    <path id="Tracé_157" data-name="Tracé 157" d="M336.976,557.242h6.718l3.2-25.913h-9.915Z" transform="translate(-203.635 -321.083)" fill="#ffb6b6"/>
    <path id="Tracé_158" data-name="Tracé 158" d="M332.647,586.688h1.891l7.383-3,3.957,3h0a8.431,8.431,0,0,1,8.431,8.431v.274H332.647Z" transform="translate(-201.019 -352.722)" fill="#2f2e41"/>
    <path id="Tracé_159" data-name="Tracé 159" d="M183.573,539.325l6.013,3,14.42-21.765-8.874-4.423Z" transform="translate(-110.933 -311.9)" fill="#ffb6b6"/>
    <path id="Tracé_160" data-name="Tracé 160" d="M176.24,567.85l1.692.844,7.946.606,2.2,4.452h0a8.432,8.432,0,0,1,3.785,11.307l-.122.245-19.387-9.662Z" transform="translate(-104.156 -343.153)" fill="#2f2e41"/>
    <path id="Tracé_161" data-name="Tracé 161" d="M253.628,299.4l-42.715,1.114.743,20.8s-.743,5.571.743,7.057,2.229,1.485,1.485,4.086-2.663,27.443-2.663,27.443-17.532,31-16.789,31.742,1.485,0,.743,1.857-1.486,1.114-.743,1.857a27.37,27.37,0,0,1,1.857,2.229H208.4s.677-3.714.677-4.086.743-2.6.743-2.971,21.154-22.784,21.154-22.784l4.457-37.143L246.2,367s0,31.944.743,32.687.743.371.371,1.857-1.857,1.114-.743,2.229,1.486-.743,1.114,1.114l-.372,1.857,14.27.159s1.486-3.131.743-4.245-.7-.81.208-2.634,1.278-2.195.906-2.566-.371-2.347-.371-2.347-5.356-73.055-5.356-74.169a3.706,3.706,0,0,1,.308-1.671v-1.513L256.6,312.4Z" transform="translate(-117.31 -180.93)" fill="#2f2e41"/>
    <path id="Tracé_162" data-name="Tracé 162" d="M420.878,544.055l.368-8.287a26.767,26.767,0,0,1,12.484-3.16c-6,4.9-5.247,14.352-9.312,20.944a16.1,16.1,0,0,1-11.806,7.44l-5.018,3.072a26.978,26.978,0,0,1,5.686-21.861,26.055,26.055,0,0,1,4.789-4.45c1.2,3.169,2.807,6.3,2.807,6.3" transform="translate(-246.054 -321.855)" fill="#f2f2f2"/>
    <path id="Tracé_163" data-name="Tracé 163" d="M265.645,115.052l21.4,43.27-4.186,52.514-27.34-2.5-4.9-86.967Z" transform="translate(-151.445 -69.526)" fill="#2f2e41"/>
    <path id="Tracé_164" data-name="Tracé 164" d="M332.593,218.776l-12.5-1.143-.019-.159-8.39-69.469,1.878-5.205a7.623,7.623,0,0,1,5.7-4.878h0a7.59,7.59,0,0,1,8.888,6.018l.01.053,2.245,12.128,3.185,41Z" transform="translate(-188.349 -83.263)" fill="#2f2e41"/>
    <path id="Tracé_165" data-name="Tracé 165" d="M282.267,122.056l2.521-6.033,7.8.137,8.138,11.51,8.541,35.919s3.068,26.239,0,27.624-13.465-.325-13.465-.325Z" transform="translate(-170.574 -70.113)" fill="#d9c9b0"/>
    <path id="Tracé_166" data-name="Tracé 166" d="M308.361,116.37s16.81,9.718,17.468,14.79,2.859,67.158,2.859,67.158l-5.945-3.841-1.625-22.628-7.255-46.328Z" transform="translate(-186.343 -70.323)" fill="#2f2e41"/>
    <path id="Tracé_167" data-name="Tracé 167" d="M280.836,51.32a11.457,11.457,0,1,1-11.457,11.457A11.457,11.457,0,0,1,280.836,51.32" transform="translate(-162.786 -31.013)" fill="#ffb8b8"/>
    <path id="Tracé_168" data-name="Tracé 168" d="M263.489,45.971a6.306,6.306,0,0,1,6.041-2.944,8.249,8.249,0,0,1,13.822-4.812,2.566,2.566,0,0,1,2.509-.251A5.288,5.288,0,0,1,287.9,39.6a11.871,11.871,0,0,1,1.661,12.077c.286-1.04-.756-2.018-1.809-2.252s-2.157-.012-3.225-.164c-1.369-.195-2.6-.989-3.969-1.167a9.033,9.033,0,0,0-3.433.441,9.313,9.313,0,0,1-3.432.461c-1.153-.137-2.639,4.234-2.62,7.314,0,.583-.116,1.333-.687,1.456-.7.153-1.109-.817-1.777-1.081a1.236,1.236,0,0,0-1.517.806,2.016,2.016,0,0,0,.385,1.806,5.949,5.949,0,0,0,1.444,1.253l-.275.229a1.638,1.638,0,0,1-2.068.257,4.463,4.463,0,0,1-1.484-1.69,19.892,19.892,0,0,1-2.723-6.525,9.5,9.5,0,0,1,1.119-6.85" transform="translate(-158.435 -21.735)" fill="#2f2e41"/>
    <path id="Tracé_169" data-name="Tracé 169" d="M230.72,263.438a2.348,2.348,0,0,1,3.315-.116l11.057,10.306a2.345,2.345,0,0,1-3.2,3.432l-11.057-10.306a2.348,2.348,0,0,1-.116-3.315" transform="translate(-139.045 -158.746)" fill="#e6e6e6"/>
    <path id="Tracé_170" data-name="Tracé 170" d="M245.182,311.972a4.736,4.736,0,0,1,1.065-7.182l-6.158-29.322,8.162,3.138,4.725,28.012a4.761,4.761,0,0,1-7.794,5.353" transform="translate(-145.086 -166.466)" fill="#ffb8b8"/>
    <path id="Tracé_171" data-name="Tracé 171" d="M234.553,212.659l-3.322-21.4-1.248-41.1.927-12.32a7.59,7.59,0,0,1,8.139-7l.055,0a7.624,7.624,0,0,1,6.2,4.236l2.427,4.974-.867,70.128Z" transform="translate(-138.979 -79.051)" fill="#2f2e41"/>
    <path id="Tracé_172" data-name="Tracé 172" d="M251.063,612.16a.613.613,0,0,1-.611.615H85.027a.615.615,0,1,1,0-1.229H250.449a.613.613,0,0,1,.615.611Z" transform="translate(-51.01 -369.558)" fill="#ccc"/>
    <path id="Tracé_173" data-name="Tracé 173" d="M275.658,90.867a.791.791,0,1,1,1.322.63l1.33,2.186a.4.4,0,0,1-.676.411l-1.5-2.458a.789.789,0,0,1-.48-.77" transform="translate(-166.58 -54.46)" fill="#fff"/>
    <path id="Tracé_174" data-name="Tracé 174" d="M277.707,94.334h0a.2.2,0,0,1-.266-.087l-.356-.707a.2.2,0,1,1,.353-.178l.356.706a.2.2,0,0,1-.087.266" transform="translate(-167.43 -56.353)" fill="#2f2e41"/>
  </g>
</svg>
