<svg id="illu-1" xmlns="http://www.w3.org/2000/svg" xmlns:xlink="http://www.w3.org/1999/xlink" width="384" height="249.211" viewBox="0 0 384 249.211">
  <defs>
    <clipPath id="clip-path">
      <rect id="Rectangle_152" data-name="Rectangle 152" width="384" height="249.211" fill="none"/>
    </clipPath>
  </defs>
  <g id="Groupe_80" data-name="Groupe 80" clip-path="url(#clip-path)">
    <path id="Tracé_76" data-name="Tracé 76" d="M792.444,153.939a6.146,6.146,0,1,1-6.146,6.146,6.145,6.145,0,0,1,6.146-6.146" transform="translate(-414.589 -81.167)" fill="#f2f2f2"/>
    <path id="Tracé_77" data-name="Tracé 77" d="M174.363,174.6a4.179,4.179,0,0,1-6.19-1.662l-14.779,1.5,3.579-6.84,13.486-.372a4.2,4.2,0,0,1,3.9,7.377" transform="translate(-80.88 -88.019)" fill="#ffb6b6"/>
    <path id="Tracé_78" data-name="Tracé 78" d="M63.965,159.711,31.4,146.217a10.539,10.539,0,1,1,9.778-18.571L67.417,144.7l27.306-1.383,2.045,8.5Z" transform="translate(-13.127 -66.404)" fill="#d9c9b0"/>
    <path id="Tracé_79" data-name="Tracé 79" d="M94.85,481.821h5.214l2.48-20.111h-7.7Z" transform="translate(-50.011 -243.445)" fill="#ffb6b6"/>
    <path id="Tracé_80" data-name="Tracé 80" d="M89.957,498.262l8.242-.492V501.3l7.836,5.412a2.206,2.206,0,0,1-1.253,4.021H94.969l-1.691-3.493-.66,3.493h-3.7Z" transform="translate(-46.884 -262.458)" fill="#2f2e41"/>
    <path id="Tracé_81" data-name="Tracé 81" d="M23.889,481.821H29.1l2.48-20.111h-7.7Z" transform="translate(-12.595 -243.445)" fill="#ffb6b6"/>
    <path id="Tracé_82" data-name="Tracé 82" d="M19,498.262l8.242-.492V501.3l7.836,5.412a2.206,2.206,0,0,1-1.253,4.021H24.008l-1.691-3.493-.66,3.493h-3.7Z" transform="translate(-9.468 -262.458)" fill="#2f2e41"/>
    <path id="Tracé_83" data-name="Tracé 83" d="M65.424,268.984l20.328,40.329a11.056,11.056,0,0,1,.978,7.138,29.483,29.483,0,0,1-1.891,6.023l-2.728,32.363-2.444,10.151-8.793.75a81.881,81.881,0,0,0-1.7-20.441c-2.383-11.932,1.7-29.309,1.7-29.309s-7.492-12.263-16.011-18.4,10.561-28.605,10.561-28.605" transform="translate(-27.773 -141.826)" fill="#2f2e41"/>
    <path id="Tracé_84" data-name="Tracé 84" d="M20.932,230.424a123.449,123.449,0,0,1-7.332,11.5,18.384,18.384,0,0,0-3.9,12.868,14.967,14.967,0,0,0,4.42,9.705s2.042,5.11,1.021,7.838v24.2s-5.468,28.573-.7,37.092L16.5,352.744s7.229,2.029,7.569-1.375c0,0,.945-7.479,1.309-9.866l.274-24.454a16.261,16.261,0,0,1,2.836-8.892,18.755,18.755,0,0,0,3.025-9.927l11.218-49.576,2.5-17.318Z" transform="translate(-5.083 -121.495)" fill="#2f2e41"/>
    <path id="Tracé_85" data-name="Tracé 85" d="M14.452,143.928l4.36,21.8L9.26,188l35.687-13.757.485-1.315,1.181-4.477-1.4-13.94c.491-1.024,7.485-7.486.171-18.847l-7.9-18.546-14.8-.226-.061.061a29.817,29.817,0,0,0-8.168,26.974" transform="translate(-4.882 -61.634)" fill="#d9c9b0"/>
    <path id="Tracé_86" data-name="Tracé 86" d="M59.146,287.319a4.18,4.18,0,0,1-.32-6.4l-5.964-13.6,7.608,1.3,4.5,12.719a4.2,4.2,0,0,1-5.821,5.982" transform="translate(-27.872 -140.945)" fill="#ffb6b6"/>
    <path id="Tracé_87" data-name="Tracé 87" d="M24.894,178.161l2.839-35.136a10.539,10.539,0,1,1,20.677,3.6l-8.174,30.21,9.7,25.562-7.464,4.558Z" transform="translate(-13.126 -70.303)" fill="#d9c9b0"/>
    <path id="Tracé_88" data-name="Tracé 88" d="M1.269,84.13l36.126-7.386c1-3.319,2.9-6.365-2.361-11.547A15.711,15.711,0,0,0,17.046,52.849C8.754,52.111,4.1,58,4.12,65.915Z" transform="translate(-0.669 -27.75)" fill="#2f2e41"/>
    <path id="Tracé_89" data-name="Tracé 89" d="M32.134,56.754a12.28,12.28,0,1,1-12.28,12.28,12.28,12.28,0,0,1,12.28-12.28" transform="translate(-10.468 -29.925)" fill="#ffb8b8"/>
    <path id="Tracé_90" data-name="Tracé 90" d="M12.611,54.857a11.307,11.307,0,0,1,7.152-4.8l2.316-.473a11.346,11.346,0,0,1,13.388,8.843c-1.664,2.167-11.529,3.809-17.41,4.525,1.647,5.942,7.978,10.818,7.293,14.432L2.192,82.116,1.719,79.8c-4.063-9.77,1.6-19.771,10.892-24.943" transform="translate(-0.203 -26.021)" fill="#2f2e41"/>
    <path id="Tracé_91" data-name="Tracé 91" d="M1.057,85.528l36.126-7.386c1-3.319,2.9-6.365-2.361-11.547A15.711,15.711,0,0,0,16.834,54.247C8.542,53.509,3.883,59.4,3.908,67.313Z" transform="translate(-0.557 -28.488)" fill="#2f2e41"/>
    <path id="Tracé_92" data-name="Tracé 92" d="M31.922,58.152a12.28,12.28,0,1,1-12.28,12.28,12.28,12.28,0,0,1,12.28-12.28" transform="translate(-10.357 -30.662)" fill="#ffb8b8"/>
    <path id="Tracé_93" data-name="Tracé 93" d="M12.4,56.255a11.307,11.307,0,0,1,7.152-4.8l2.316-.473a11.346,11.346,0,0,1,13.388,8.843c-1.664,2.167-11.529,3.809-17.41,4.525,1.647,5.942,7.978,10.818,7.293,14.432L1.98,83.514,1.507,81.2c-4.063-9.77,1.6-19.771,10.892-24.943" transform="translate(-0.091 -26.758)" fill="#2f2e41"/>
    <path id="Tracé_94" data-name="Tracé 94" d="M288.225,149.689H194.561a9.8,9.8,0,0,1-9.788-9.788V17.657a9.8,9.8,0,0,1,9.788-9.788h93.664a9.8,9.8,0,0,1,9.788,9.788V139.9a9.8,9.8,0,0,1-9.788,9.788" transform="translate(-97.425 -4.149)" fill="#f0f0f0"/>
    <path id="Tracé_95" data-name="Tracé 95" d="M287.7,149.634H194.034a10.273,10.273,0,0,1-10.261-10.262V17.13A10.273,10.273,0,0,1,194.034,6.869H287.7A10.272,10.272,0,0,1,297.959,17.13V139.373A10.273,10.273,0,0,1,287.7,149.634M194.034,7.814a9.326,9.326,0,0,0-9.316,9.316V139.373a9.327,9.327,0,0,0,9.316,9.316H287.7a9.326,9.326,0,0,0,9.316-9.316V17.13A9.326,9.326,0,0,0,287.7,7.814Z" transform="translate(-96.897 -3.622)" fill="#d9c9b0"/>
    <path id="Tracé_96" data-name="Tracé 96" d="M610.107,149.689H516.443a9.8,9.8,0,0,1-9.788-9.788V17.657a9.8,9.8,0,0,1,9.788-9.788h93.664a9.8,9.8,0,0,1,9.788,9.788V139.9a9.8,9.8,0,0,1-9.788,9.788" transform="translate(-267.142 -4.149)" fill="#f0f0f0"/>
    <path id="Tracé_97" data-name="Tracé 97" d="M727.168,1.5l-.009.009a5.033,5.033,0,0,0-7.5,6.691l-.01.009,6.708,7.523,7.523-6.708A5.04,5.04,0,0,0,727.168,1.5" transform="translate(-378.861 0)" fill="#d1d3d4"/>
    <path id="Tracé_98" data-name="Tracé 98" d="M237.921,147.87a2.65,2.65,0,0,1,.012-2.209l5.615-12.071a7.367,7.367,0,0,1,14.138,4.144l-1.876,13.224a2.653,2.653,0,0,1-3,2.254,2.692,2.692,0,0,1-.381-.083l-12.845-3.805a2.65,2.65,0,0,1-1.664-1.453" transform="translate(-125.324 -67.656)" fill="#3f3d56"/>
    <path id="Tracé_99" data-name="Tracé 99" d="M346.871,133.509l-12.845,3.806a2.652,2.652,0,0,1-3.38-2.171L328.77,121.92a7.367,7.367,0,0,1,14.138-4.144l5.615,12.071a2.653,2.653,0,0,1-1.287,3.524A2.708,2.708,0,0,1,346.871,133.509Z" transform="translate(-173.195 -59.317)" fill="#3f3d56"/>
    <path id="Tracé_100" data-name="Tracé 100" d="M256.24,120.861l10.073-7.326,16.483-4.579,13.736,2.748.808,7.59a91.649,91.649,0,0,1-1.265,27.666l-.335,7.016-35.38,1.225-3.663-6.41s-8.242-8.242-1.832-17.4Z" transform="translate(-133.096 -57.449)" fill="#3f3d56"/>
    <path id="Tracé_101" data-name="Tracé 101" d="M623.911,76.023v8.141l-.8,9.946s-.251,8.685-.555,15.536a75.561,75.561,0,0,1-.57,8.1,11.728,11.728,0,0,0-.042,3.635c.15,1.827.4,3.756.439,4.4.078,1.2-.559,6.378-.559,6.378s-.713,12.974-1.748,14.009,0,3.981,0,3.981c-4.854,3.579-10.985-.8-10.985-.8,1.354-2.157-.8-16.883-.8-16.883s-.315-5.028-.953-6.378-.8-9.788-.8-9.788v-12.5a17.166,17.166,0,0,1-1.91-3.752,40.261,40.261,0,0,1,0-5.41l-1.748-5.89-1.2,4.614s-3.1,12.895-3.658,14.486a4.349,4.349,0,0,0,.315,3.185s.8,2.453,0,3.579a8.047,8.047,0,0,0-1.125,2.311s-.409,4.7-1.126,6.378-1.351,3.752-1.351,3.752.168,3.174-.548,3.891-.953,4.3-.953,4.3.157,4.056-.8,5.488-.956,9.552-.956,9.552a11.135,11.135,0,0,1-11.21.477s.945-.885.229-5.012.514-15.363.514-15.363-.158-2.851.638-4.127-.4-3.74-.083-4.855,1.275-7.166,1.275-7.166-.4-14.883-.4-15.678a10.388,10.388,0,0,0-1.126-4.059c-.716-1.272,0-10.505,0-10.505s1.689-4.772,1.126-5.808.375-2.866.375-2.866-.874-2.15,0-2.548,1.035-1.988,1.035-1.988l.608-7.721s.229-3.5.957-3.662.409-1.508,1.126-2.465a6.721,6.721,0,0,0,.712-2.071c.1-.442.2-.9.274-1.347.225-1.2.364-2.236.364-2.236,4.7,3.9,29.395,1.167,29.421,1.167,1.568.342,3.432,5.785,4.779,10.531a47.875,47.875,0,0,1,1.8,13.034" transform="translate(-305.964 -27.045)" fill="#3f3d56"/>
    <path id="Tracé_102" data-name="Tracé 102" d="M136.44,507.114h13.719c.2-.369.392-.747.567-1.13a42.594,42.594,0,0,0,2.884-10.849l1.035-6-9.923,7.214c-1.078.785-2.179,1.6-3.215,2.487a13.816,13.816,0,0,0-4.8,6.7c-.038.151-.076.3-.1.454a9.2,9.2,0,0,0-.165,1.13" transform="translate(-71.94 -257.903)" fill="#f0f0f0"/>
    <path id="Tracé_103" data-name="Tracé 103" d="M132.337,511.093a.36.36,0,0,0,0,.071,4.95,4.95,0,0,0,.255,1.059h6.16a7.744,7.744,0,0,0,.492-1.13,8.314,8.314,0,0,0,.4-1.6,16.648,16.648,0,0,0-.321-5.55c-.118-.591-.246-1.187-.373-1.773l-.728-3.347-3.645,5.857c-1.22,1.962-2.487,4.122-2.245,6.415" transform="translate(-69.761 -263.012)" fill="#f0f0f0"/>
    <path id="Tracé_104" data-name="Tracé 104" d="M0,525.344a.565.565,0,0,0,.563.567H87.214a.565.565,0,0,0,0-1.13H.563a.564.564,0,0,0-.563.563" transform="translate(0 -276.7)" fill="#cacaca"/>
    <path id="Tracé_105" data-name="Tracé 105" d="M282.158,268.25a16.929,16.929,0,1,1-16.929,16.929,16.929,16.929,0,0,1,16.929-16.929" transform="translate(-139.847 -141.439)" fill="#d9c9b0"/>
    <path id="Tracé_106" data-name="Tracé 106" d="M288.9,303.039a1.882,1.882,0,0,1-1.506-.754l-4.619-6.158a1.883,1.883,0,1,1,3.008-2.266l0,.007,3.022,4.028,7.76-11.641a1.883,1.883,0,0,1,3.14,2.08l-.006.009L290.468,302.2a1.883,1.883,0,0,1-1.515.838H288.9" transform="translate(-148.898 -150.488)" fill="#fff"/>
    <path id="Tracé_107" data-name="Tracé 107" d="M419.464,386.29a6.146,6.146,0,1,1-6.146,6.146,6.145,6.145,0,0,1,6.146-6.146" transform="translate(-217.929 -203.678)" fill="#f2f2f2"/>
    <path id="Tracé_108" data-name="Tracé 108" d="M522.354,386.29a6.146,6.146,0,1,1-6.146,6.146,6.145,6.145,0,0,1,6.146-6.146" transform="translate(-272.18 -203.678)" fill="#f2f2f2"/>
    <path id="Tracé_109" data-name="Tracé 109" d="M467.462,386.29a6.146,6.146,0,1,1-6.146,6.146,6.145,6.145,0,0,1,6.146-6.146" transform="translate(-243.237 -203.678)" fill="#f2f2f2"/>
  </g>
</svg>
