<svg id="illu-3" xmlns="http://www.w3.org/2000/svg" xmlns:xlink="http://www.w3.org/1999/xlink" width="293.012" height="230.807" viewBox="0 0 293.012 230.807">
  <defs>
    <clipPath id="clip-path">
      <rect id="Rectangle_153" data-name="Rectangle 153" width="293.012" height="230.807" fill="none"/>
    </clipPath>
  </defs>
  <g id="Groupe_82" data-name="Groupe 82" clip-path="url(#clip-path)">
    <path id="Tracé_110" data-name="Tracé 110" d="M147.773,226.065c-2.339-12.516,1.343-26.756,11.577-34.331a58.663,58.663,0,0,0,12.23,38.376c3.285,4.21,7.377,8.551,7.249,13.889a13.117,13.117,0,0,1-4.243,8.748,38.961,38.961,0,0,1-8.165,5.667l-.449.7c-8.447-9.528-15.861-20.53-18.2-33.045" transform="translate(-77.428 -100.925)" fill="#f0f0f0"/>
    <path id="Tracé_111" data-name="Tracé 111" d="M167.88,191.657a50.141,50.141,0,0,0-3.31,30.672,21.582,21.582,0,0,0,2.287,6.367,12.384,12.384,0,0,0,4.678,4.538,25.626,25.626,0,0,1,5.236,3.329A7.582,7.582,0,0,1,179,242.349a19.71,19.71,0,0,1-2.182,7.53c-1.206,2.652-2.5,5.388-2.423,8.37.01.361-.551.355-.561-.006-.136-5.188,3.615-9.354,4.451-14.333a7.68,7.68,0,0,0-1.551-6.578c-1.428-1.574-3.434-2.451-5.251-3.481a13.22,13.22,0,0,1-4.74-4.267,19.962,19.962,0,0,1-2.523-6.256,48.636,48.636,0,0,1-1.1-15.164,51.018,51.018,0,0,1,4.279-16.8C167.546,191.04,168.026,191.33,167.88,191.657Z" transform="translate(-85.772 -100.656)" fill="#fff"/>
    <path id="Tracé_112" data-name="Tracé 112" d="M155.769,243.173a7.523,7.523,0,0,1-7.848-5.77c-.082-.352.46-.5.543-.144a6.966,6.966,0,0,0,7.311,5.353C156.135,242.585,156.127,243.145,155.769,243.173Z" transform="translate(-77.858 -124.782)" fill="#fff"/>
    <path id="Tracé_113" data-name="Tracé 113" d="M178.939,267.746a14.5,14.5,0,0,0,3.635-9.922c-.009-.361.553-.355.561.006a15.08,15.08,0,0,1-3.8,10.318C179.091,268.418,178.7,268.015,178.939,267.746Z" transform="translate(-94.151 -135.572)" fill="#fff"/>
    <path id="Tracé_114" data-name="Tracé 114" d="M165.352,213.8a4.258,4.258,0,0,0,3.783-1.42c.237-.273.628.13.392.4a4.77,4.77,0,0,1-4.181,1.58.29.29,0,0,1-.278-.284A.282.282,0,0,1,165.352,213.8Z" transform="translate(-86.888 -111.744)" fill="#fff"/>
    <path id="Tracé_115" data-name="Tracé 115" d="M221.7,213.592c-.143.175-.286.35-.428.53a56.04,56.04,0,0,0-5.133,7.511c-.119.2-.238.408-.351.614a59.107,59.107,0,0,0-6.9,20.644,57.44,57.44,0,0,0-.527,8.707c.063,4.021.452,8.376-.781,12.074a9.907,9.907,0,0,1-.444,1.136l-19.779,6.3c-.053-.009-.1-.012-.156-.02l-.778.288c-.013-.15-.023-.306-.036-.456-.008-.087-.011-.175-.019-.263,0-.058-.008-.117-.014-.169,0-.019,0-.039,0-.054-.007-.053-.008-.1-.013-.15-.059-.871-.113-1.743-.158-2.618,0-.005,0-.005,0-.011a84.4,84.4,0,0,1,1.107-19.928c.037-.2.072-.4.118-.594a54.855,54.855,0,0,1,2.423-8.606,48.468,48.468,0,0,1,1.953-4.494,40.268,40.268,0,0,1,7.311-10.253c5.9-6.006,13.657-10.057,21.967-10.185.213,0,.421,0,.635,0" transform="translate(-97.926 -112.43)" fill="#f0f0f0"/>
    <path id="Tracé_116" data-name="Tracé 116" d="M222.073,213.536a50.141,50.141,0,0,0-21.11,22.5,21.6,21.6,0,0,0-2.008,6.461,12.386,12.386,0,0,0,1,6.44,25.62,25.62,0,0,1,2.176,5.81,7.581,7.581,0,0,1-1.7,5.963,19.7,19.7,0,0,1-6.276,4.7c-2.559,1.392-5.24,2.8-6.973,5.225-.21.294-.654-.049-.445-.342,3.015-4.224,8.518-5.293,12.182-8.764a7.679,7.679,0,0,0,2.722-6.186c-.192-2.117-1.266-4.025-2.1-5.941a13.216,13.216,0,0,1-1.216-6.26,19.953,19.953,0,0,1,1.752-6.514,48.642,48.642,0,0,1,8.25-12.772,51.031,51.031,0,0,1,13.529-10.835C222.177,212.842,222.386,213.363,222.073,213.536Z" transform="translate(-98.267 -112.109)" fill="#fff"/>
    <path id="Tracé_117" data-name="Tracé 117" d="M215.7,244.437a7.523,7.523,0,0,1-2.792-9.333c.146-.33.666-.118.52.212a6.966,6.966,0,0,0,2.615,8.676C216.345,244.187,216,244.631,215.7,244.437Z" transform="translate(-111.735 -123.667)" fill="#fff"/>
    <path id="Tracé_118" data-name="Tracé 118" d="M213.323,280.474a14.5,14.5,0,0,0,8.876-5.734c.211-.294.656.049.445.342a15.083,15.083,0,0,1-9.248,5.948C213.04,281.1,212.97,280.545,213.323,280.474Z" transform="translate(-112.167 -144.559)" fill="#fff"/>
    <path id="Tracé_119" data-name="Tracé 119" d="M240.707,228.092a4.259,4.259,0,0,0,3.876,1.143c.353-.075.423.482.072.556a4.771,4.771,0,0,1-4.29-1.256.289.289,0,0,1-.051-.393A.282.282,0,0,1,240.707,228.092Z" transform="translate(-126.467 -120.033)" fill="#fff"/>
    <path id="Tracé_120" data-name="Tracé 120" d="M314.494,64.222a5.7,5.7,0,0,1,.129.885l23.19,13.379,5.637-3.245,6.009,7.867-9.42,6.715a4.319,4.319,0,0,1-5.182-.126L310.945,70.831a5.666,5.666,0,1,1,3.55-6.608Z" transform="translate(-159.656 -31.503)" fill="#ffb6b6"/>
    <path id="Tracé_121" data-name="Tracé 121" d="M376.782,86.285a2.426,2.426,0,0,1,1.212-1.62L388.7,78.832a6.747,6.747,0,0,1,8.157,10.749L388.276,98.3a2.427,2.427,0,0,1-3.671-.242l-7.388-9.8a2.428,2.428,0,0,1-.435-1.976" transform="translate(-198.301 -40.779)" fill="#3f3d56"/>
    <path id="Tracé_122" data-name="Tracé 122" d="M416.508,11.592c1.541-4.91,5.044-9.412,9.888-11.072s11.939.869,15.582,4.5c6.662,6.64,8.288,29.451,3.711,36.659-.91-.048-4.052-.084-4.974-.118l-1.3-4.345v4.3c-7.192-.222-14.68-.083-22.172.061-.672-5.1-2.271-25.076-.731-29.985" transform="translate(-218.9 0)" fill="#2f2e41"/>
    <path id="Tracé_123" data-name="Tracé 123" d="M402.118,431.45h-6.56l-3.121-25.3h9.682Z" transform="translate(-206.571 -213.787)" fill="#ffb6b6"/>
    <path id="Tracé_124" data-name="Tracé 124" d="M516.626,423.747l-6.348,1.654-9.4-23.7,9.369-2.442Z" transform="translate(-263.651 -210.163)" fill="#ffb6b6"/>
    <path id="Tracé_125" data-name="Tracé 125" d="M426.788,128.128l1.487,3.865-.3,3.865-29.092,10.076,1.444-16.914,3.27-3.865Z" transform="translate(-209.966 -65.879)" fill="#ffb6b6"/>
    <path id="Tracé_126" data-name="Tracé 126" d="M426.83,14.123a10.391,10.391,0,1,1-10.39,10.39,10.39,10.39,0,0,1,10.39-10.39" transform="translate(-219.206 -7.434)" fill="#ffb7b7"/>
    <path id="Tracé_127" data-name="Tracé 127" d="M416.356,5.372A13.051,13.051,0,0,1,436.2,16.761a35.062,35.062,0,0,1-18.1.349l-1.462-3.579-.862,3.581a4.4,4.4,0,0,1-5.666-.008,13.327,13.327,0,0,1,6.244-11.733" transform="translate(-215.871 -1.823)" fill="#2f2e41"/>
    <path id="Tracé_128" data-name="Tracé 128" d="M393.8,467.745h-4.655l-.831-4.395-2.128,4.395H373.844a2.775,2.775,0,0,1-1.577-5.059l9.859-6.809v-4.443l10.37.619Z" transform="translate(-195.323 -237.626)" fill="#2f2e41"/>
    <path id="Tracé_129" data-name="Tracé 129" d="M522.646,458.021l-4.5,1.174-1.912-4.043-.951,4.79-11.947,3.114a2.775,2.775,0,0,1-2.8-4.5l7.823-9.076-1.121-4.3,10.191-2.017Z" transform="translate(-263.114 -233.273)" fill="#2f2e41"/>
    <path id="Tracé_130" data-name="Tracé 130" d="M455.662,286.563l-19.229-39.523-6.037-48.1c4.162-7.729-3.567-23.457-3.567-23.457v-6.6l-29.943,5.648a143.733,143.733,0,0,0-8.758,52.187l1.206,63.943h-.378a2.368,2.368,0,1,0,0,4.736H400.8a2.368,2.368,0,0,0,0-4.736h-.305l8.5-81.348,9.883,40.143,23.885,36.961a2.362,2.362,0,0,0,.189,4.717h11.84a2.366,2.366,0,0,0,.873-4.565" transform="translate(-203.492 -88.893)" fill="#2f2e41"/>
    <path id="Tracé_131" data-name="Tracé 131" d="M432.8,126.929h0a1.888,1.888,0,0,0-1.707-1.418c-.395-4.512-3-33.451-3.1-34.3l0-.036-.755-16.131A2.385,2.385,0,0,0,425,72.775l-3.988-.26a.211.211,0,0,1-.2-.211,3.354,3.354,0,0,0-3.354-3.354H405.649a3.14,3.14,0,0,0-3.114,2.749.209.209,0,0,1-.212.188h0a5.61,5.61,0,0,0-5.644,4.653c-1.614,9.392-4.849,30.71-3.25,42.56a83.049,83.049,0,0,1,.093,13.782,2.54,2.54,0,0,0,.633,1.842,1.891,1.891,0,0,0,.99,3.651l36.281-9.146a1.894,1.894,0,0,0,1.374-2.3" transform="translate(-206.755 -36.294)" fill="#3f3d56"/>
    <path id="Tracé_132" data-name="Tracé 132" d="M225.081,317.858a4.482,4.482,0,0,0-3.763-4.4L156.993,302.9a4.488,4.488,0,0,0-1.853.082l-15.075,3.9-8.65,2.239-15.962,4.126a4.5,4.5,0,0,0-3.366,4.351V385a4.516,4.516,0,0,0,3.557,4.392l65.519-.742a4.38,4.38,0,0,0,.936.1,4.481,4.481,0,0,0,1.352-.206l38.926.969a4.475,4.475,0,0,0,3.142-4.321Z" transform="translate(-59 -159.409)" fill="#fff"/>
    <path id="Tracé_133" data-name="Tracé 133" d="M225.082,317.858a4.483,4.483,0,0,0-3.763-4.4L156.994,302.9a4.482,4.482,0,0,0-1.854.082l-15.075,3.9-8.649,2.239-15.962,4.126a4.5,4.5,0,0,0-3.366,4.351V385a4.516,4.516,0,0,0,3.557,4.392l65.519-.742a4.347,4.347,0,0,0,.936.1,4.481,4.481,0,0,0,1.352-.206l38.926.969a4.474,4.474,0,0,0,3.142-4.321Zm-3.041,70.58-38.926.926a3.419,3.419,0,0,1-1.715.082l-65.523-1.153a3.388,3.388,0,0,1-2.666-3.3V317.6a3.375,3.375,0,0,1,2.209-3.164,2.789,2.789,0,0,1,.314-.1l16.887-4.366,9.986-2.584,12.813-3.314a3.2,3.2,0,0,1,.843-.108,3.3,3.3,0,0,1,.547.045l64.325,10.563a3.353,3.353,0,0,1,2.823,3.295l.438,67.33a3.358,3.358,0,0,1-2.355,3.242" transform="translate(-59.001 -159.409)" fill="#ccc"/>
    <path id="Tracé_134" data-name="Tracé 134" d="M225.042,328.941a.479.479,0,0,1-.142.063l-18.921,5.115-5.89,1.591-16.752,4.527a.634.634,0,0,1-.146.018.9.9,0,0,1-.1-.007l-67.549-12.316-.224-.041a.563.563,0,0,1,.2-1.108l1.359.247,66.29,12.087,14.438-3.9,8.077-2.183L224.312,328l.3-.079a.564.564,0,0,1,.655.307.43.43,0,0,1,.034.09.564.564,0,0,1-.255.625" transform="translate(-60.459 -172.008)" fill="#ccc"/>
    <path id="Tracé_135" data-name="Tracé 135" d="M259.073,415.212c-.308,0-.559-.248-.562,1.338l-.562-61.221c0-2.2.247-2.458.556-2.461h.005c.308,0,.559.248.562,2.451l.562,61.22c0-1.584-.247-1.33-.556-1.328Z" transform="translate(-135.78 -185.743)" fill="#ccc"/>
    <path id="Tracé_136" data-name="Tracé 136" d="M226.161,394.078l-6.049.064-2.483-67.035-63.343-12.6a1.431,1.431,0,0,1-.183-.045,2.232,2.232,0,0,1-1.206-.85l8.649-2.239,2.543.505,60.1,11.956a2.232,2.232,0,0,1,1.513,1.093c.187.326.451,68.764.455,69.154" transform="translate(-80.482 -163.899)" fill="#ccc"/>
    <path id="Tracé_137" data-name="Tracé 137" d="M315.245,62.91a3.377,3.377,0,0,0-2.836-3.313l-48.478-7.961a3.372,3.372,0,0,0-1.4.063l-11.361,2.937-6.519,1.687-12.03,3.11a3.391,3.391,0,0,0-2.537,3.28v39.733a3.4,3.4,0,0,0,2.681,3.31l49.378,10.507a3.3,3.3,0,0,0,.706.073,3.392,3.392,0,0,0,1.019-.155l29.337-9.265a3.371,3.371,0,0,0,2.368-3.257Z" transform="translate(-121.113 -27.156)" fill="#fff"/>
    <path id="Tracé_138" data-name="Tracé 138" d="M266.676,57.847a.39.39,0,0,0-.1.014L236.661,65.6a.423.423,0,0,0-.317.409v39.732a.425.425,0,0,0,.334.414l49.379,10.506a.426.426,0,0,0,.216-.01l29.337-9.264a.421.421,0,0,0,.3-.407l-.329-40.749a.422.422,0,0,0-.354-.414l-48.478-7.96a.41.41,0,0,0-.068-.006" transform="translate(-124.407 -30.45)" fill="#d9c9b0"/>
    <path id="Tracé_139" data-name="Tracé 139" d="M315.246,62.91A3.378,3.378,0,0,0,312.41,59.6l-48.478-7.961a3.372,3.372,0,0,0-1.4.062l-11.361,2.937-6.519,1.688-12.03,3.11a3.388,3.388,0,0,0-2.537,3.279v39.733a3.4,3.4,0,0,0,2.681,3.31l49.379,10.506a3.3,3.3,0,0,0,.705.073,3.378,3.378,0,0,0,1.019-.155l29.337-9.264a3.372,3.372,0,0,0,2.368-3.257Zm-2.291,43.2-29.337,9.264a2.578,2.578,0,0,1-1.293.062l-49.382-10.506a2.554,2.554,0,0,1-2.009-2.484V62.713a2.543,2.543,0,0,1,1.665-2.385,2.18,2.18,0,0,1,.237-.073l12.727-3.29,7.526-1.947,9.657-2.5a2.417,2.417,0,0,1,.635-.082,2.559,2.559,0,0,1,.412.034l48.478,7.961a2.527,2.527,0,0,1,2.128,2.483l.33,40.749A2.531,2.531,0,0,1,312.954,106.108Z" transform="translate(-121.114 -27.156)" fill="#3f3d56"/>
    <path id="Tracé_140" data-name="Tracé 140" d="M315.214,71.263a.388.388,0,0,1-.107.048l-14.26,3.854-4.439,1.2-12.625,3.411a.48.48,0,0,1-.11.014.583.583,0,0,1-.076-.006L232.689,70.5l-.169-.031a.425.425,0,0,1,.152-.835l1.024.186,49.96,9.11,10.881-2.941,6.087-1.645,14.039-3.8.223-.059a.426.426,0,0,1,.494.232.3.3,0,0,1,.025.068.424.424,0,0,1-.192.471" transform="translate(-122.211 -36.652)" fill="#3f3d56"/>
    <path id="Tracé_141" data-name="Tracé 141" d="M340.864,136.28a.424.424,0,0,1-.423-.42l-.423-46.139a.423.423,0,0,1,.419-.427h0a.423.423,0,0,1,.423.419l.423,46.139a.424.424,0,0,1-.42.427Z" transform="translate(-178.979 -47.003)" fill="#3f3d56"/>
    <path id="Tracé_142" data-name="Tracé 142" d="M315.94,114.205l-4.439,1.2L309.63,69.88l-47.739-9.5a1.091,1.091,0,0,1-.138-.034,1.682,1.682,0,0,1-.908-.64l6.518-1.688,1.916.381,45.3,9.011a1.683,1.683,0,0,1,1.14.824c.141.245.22,45.676.223,45.97" transform="translate(-137.303 -30.541)" fill="#3f3d56"/>
    <path id="Tracé_143" data-name="Tracé 143" d="M362.614,112.466a5.7,5.7,0,0,1,.632.633l26.592-3.106,2.586-5.968,9.517,2.726-3.552,11.01a4.319,4.319,0,0,1-4.233,2.991l-30.447-.865a5.666,5.666,0,1,1-1.1-7.421Z" transform="translate(-185.966 -54.757)" fill="#ffb6b6"/>
    <path id="Tracé_144" data-name="Tracé 144" d="M428.9,93.774a2.427,2.427,0,0,1,.005-2.023l5.109-11.07a6.747,6.747,0,0,1,12.96,3.757l-1.682,12.116a2.43,2.43,0,0,1-2.741,2.072,2.5,2.5,0,0,1-.349-.075L430.425,95.1a2.427,2.427,0,0,1-1.528-1.326" transform="translate(-225.648 -39.914)" fill="#3f3d56"/>
    <path id="Tracé_145" data-name="Tracé 145" d="M292.45,485.788H.561a.564.564,0,0,1,0-1.128H292.45a.564.564,0,0,1,0,1.128" transform="translate(0 -255.115)" fill="#cacaca"/>
    <path id="Tracé_146" data-name="Tracé 146" d="M101.256,288.9A16.961,16.961,0,1,1,84.3,305.863a16.961,16.961,0,0,1,16.96-16.961" transform="translate(-44.372 -152.072)" fill="#d9c9b0"/>
    <path id="Tracé_147" data-name="Tracé 147" d="M107.979,323.724a1.886,1.886,0,0,1-1.509-.755l-4.627-6.169a1.887,1.887,0,1,1,3.014-2.271l0,.007,3.027,4.036,7.775-11.662a1.887,1.887,0,0,1,3.146,2.084L118.8,309l-9.254,13.881a1.888,1.888,0,0,1-1.517.84h-.053" transform="translate(-53.408 -161.106)" fill="#fff"/>
    <path id="Tracé_148" data-name="Tracé 148" d="M255.48,129.237a.73.73,0,0,1-.157-.018L240.641,125.9a.711.711,0,0,1,.313-1.386l14.682,3.315a.711.711,0,0,1-.156,1.4" transform="translate(-126.377 -65.534)" fill="#fff"/>
    <path id="Tracé_149" data-name="Tracé 149" d="M135.607,414.391a.7.7,0,0,1-.157.015l-15.05-.253a.711.711,0,0,1,.024-1.421l15.05.253a.711.711,0,0,1,.134,1.406Z" transform="translate(-63.009 -217.254)" fill="#e6e6e6"/>
    <path id="Tracé_150" data-name="Tracé 150" d="M146.607,431.391a.7.7,0,0,1-.157.015l-15.05-.253a.711.711,0,0,1,.024-1.421l15.05.253a.711.711,0,0,1,.134,1.406Z" transform="translate(-68.799 -226.202)" fill="#e6e6e6"/>
  </g>
</svg>
