<svg id="Groupe_9" data-name="Groupe 9" xmlns="http://www.w3.org/2000/svg" xmlns:xlink="http://www.w3.org/1999/xlink" width="44.297" height="47.232" viewBox="0 0 44.297 47.232">
  <defs>
    <clipPath id="clip-path">
      <rect id="Rectangle_58" data-name="Rectangle 58" width="44.297" height="47.232"/>
    </clipPath>
  </defs>
  <g id="Groupe_8" data-name="Groupe 8" clip-path="url(#clip-path)">
    <path id="Tracé_13" data-name="Tracé 13" d="M21.872,0h.553c.067.135.212.152.328.208Q33.137,5.225,43.527,10.229a1.188,1.188,0,0,1,.77,1.241q-.027,12.193,0,24.386a1.071,1.071,0,0,1-.688,1.106q-9.049,4.345-18.083,8.722c-1.039.5-2.109.945-3.1,1.548h-.553c-.075-.151-.237-.174-.366-.236q-10.37-5.01-20.748-10A1.156,1.156,0,0,1,0,35.792q.025-12.2,0-24.4a1.1,1.1,0,0,1,.716-1.136q9.43-4.523,18.842-9.083A19.314,19.314,0,0,0,21.872,0m-.417,45.434v-18.7c0-1.507-.007-3.013.006-4.52a.5.5,0,0,0-.347-.556c-.439-.178-.858-.407-1.285-.614-.518-.252-.7-.61-.525-1.008s.581-.5,1.1-.25c.456.217.918.426,1.361.668a.74.74,0,0,0,.771-.006c.764-.391,1.542-.753,2.315-1.127l2.111-1.02a.688.688,0,0,1,.779.055.653.653,0,0,1,.257.65.789.789,0,0,1-.526.588c-1.4.669-2.782,1.357-4.184,2.012a.674.674,0,0,0-.458.717q.02,11.276.012,22.551a.915.915,0,0,0,.04.484c.113.045.185-.034.263-.072q9.708-4.685,19.419-9.364a.542.542,0,0,0,.337-.6q-.008-11.369,0-22.737v-.437c-2.1,1.016-4.143,2-6.186,2.98-.231.11-.186.288-.186.463,0,2.567-.01,5.135.007,7.7a1.009,1.009,0,0,1-.656,1.038c-1.568.734-3.122,1.5-4.683,2.246-.807.388-1.229.121-1.229-.781,0-2.537-.005-5.073.006-7.61a.55.55,0,0,0-.354-.6Q19.533,12.738,9.461,7.857a.6.6,0,0,0-.6.013c-.684.344-1.378.669-2.068,1L2.333,11.033c.169.092.285.162.406.221L14.2,16.79c1.007.486,2.016.969,3.017,1.468a.688.688,0,0,1,.366.957.7.7,0,0,1-.955.285c-.127-.052-.249-.119-.373-.179Q9.035,15.835,1.81,12.35c-.127-.061-.241-.179-.413-.131V12.6q0,11.345-.012,22.691a.639.639,0,0,0,.444.672q5.7,2.736,11.388,5.487c2.716,1.311,5.432,2.624,8.238,3.98M16.491,4.195c.129.193.337.23.511.314q9.473,4.579,18.946,9.156a.637.637,0,0,0,.632,0c1.692-.828,3.392-1.641,5.088-2.462.089-.043.212-.056.238-.206l-5.83-2.813L22.5,1.634c-.173-.084-.316-.2-.549-.083-1.813.89-3.634,1.762-5.461,2.644m-5.68,2.78c.694.337,1.311.64,1.929.938q8.772,4.234,17.545,8.465c.145.07.275.195.468.1,1.274-.621,2.551-1.236,3.9-1.887-.224-.117-.379-.2-.539-.281q-3.6-1.738-7.2-3.473Q21.058,8.01,15.2,5.181a.564.564,0,0,0-.558-.075c-1.248.62-2.5,1.223-3.836,1.869M31.353,24.966c1.263-.608,2.443-1.181,3.628-1.744.21-.1.16-.271.16-.43q0-3.292,0-6.584c0-.081.049-.185-.095-.262-1.164.559-2.347,1.128-3.53,1.695a.281.281,0,0,0-.164.293c0,2.316,0,4.633,0,7.031" transform="translate(-0.001)"/>
    <path id="Tracé_14" data-name="Tracé 14" d="M133.03,1197.768c0,.551-.537.839-1.1.568-1.615-.773-3.226-1.555-4.839-2.334-.317-.153-.636-.3-.951-.459-.48-.24-.644-.61-.447-.994s.577-.481,1.07-.245q2.317,1.113,4.631,2.235c.4.193.8.393,1.2.583a.71.71,0,0,1,.441.646" transform="translate(-122.642 -1165.962)"/>
    <path id="Tracé_15" data-name="Tracé 15" d="M129.961,1334.646a.688.688,0,0,1-1.046.6c-.886-.412-1.761-.847-2.639-1.274a4.142,4.142,0,0,1-.489-.249.68.68,0,0,1,.594-1.22c1.08.5,2.149,1.023,3.219,1.546a.625.625,0,0,1,.362.595" transform="translate(-122.472 -1300.962)"/>
  </g>
</svg>
