<svg xmlns="http://www.w3.org/2000/svg" width="197.191" height="59.945" viewBox="0 0 197.191 59.945">
  <path id="logo-aal" d="M4338.083,30.2c0-2.516,2.655-4.041,5.36-4.041,2.793,0,5.5,1.541,5.5,4.16s-2.6,4.027-5.446,4.027S4338.083,32.719,4338.083,30.2Zm1.146.016c0,2.057,2.125,3.124,4.3,3.124,2.106,0,4.248-.965,4.248-3.021s-2.176-3.137-4.333-3.137c-2.058,0-4.215.979-4.215,3.037Zm15.947.873v-4.66h1.167v4.663c0,1.748,1.422,2.177,3.168,2.177s3.1-.474,3.1-2.177V26.429h1.149v4.663c0,2.294-1.815,3.183-4.282,3.183s-4.3-.859-4.3-3.183Zm37.291,2.976-2.517-3.093h-3.94v3.093h-1.147V26.43h5.5c1.7,0,3.374.578,3.374,2.265h0c0,1.243-1.062,2-2.4,2.2l2.585,3.167Zm-6.457-4.086h4.351c1.029,0,2.21-.208,2.21-1.287s-1.2-1.258-2.21-1.258h-4.351Zm-15.374,4.086V26.43h7.774v1.007h-6.626v2.22h3.8v1.006h-3.8v2.383h6.815v1.021Zm-44.034,0V26.43h1.147v6.631h5.771v1.007Zm-14.821,0-1.233-1.909h-6.113l-1.25,1.909h-1.215L4307,26.43h1.046L4313,34.068ZM4305.1,31.15h4.795l-2.38-3.672Zm2.089-5.6-1.677-1.584h1.832l1.166,1.584ZM4433.82,8.416a10.953,10.953,0,0,1-3.564-1.906,9.575,9.575,0,0,1-2.529-3.176,9.658,9.658,0,0,1-.97-4.419,10.99,10.99,0,0,1,.891-4.4,11.107,11.107,0,0,1,2.46-3.6,11.786,11.786,0,0,1,3.741-2.436,12.117,12.117,0,0,1,4.711-.9,11.713,11.713,0,0,1,3.82.607,9.455,9.455,0,0,1,3.062,1.694,7.792,7.792,0,0,1,2.025,2.629,7.753,7.753,0,0,1,.736,3.387h0v1.058H4432.64a10.484,10.484,0,0,0,.691,3.734,7.478,7.478,0,0,0,1.726,2.638,6.9,6.9,0,0,0,2.528,1.549,9.2,9.2,0,0,0,3.1.511,8.614,8.614,0,0,0,3.72-.808,7.807,7.807,0,0,0,2.851-2.253l.711.347a8.155,8.155,0,0,1-1.525,2.714,9.438,9.438,0,0,1-2.36,2,11.545,11.545,0,0,1-2.939,1.243,12.283,12.283,0,0,1-3.241.434,13.239,13.239,0,0,1-4.081-.636Zm7.858-13.237a6.751,6.751,0,0,0-1.135-4.1,3.62,3.62,0,0,0-3.075-1.539,4.157,4.157,0,0,0-1.638.337A4.294,4.294,0,0,0,4434.4-9.1a5.556,5.556,0,0,0-1.081,1.752,9.36,9.36,0,0,0-.588,2.531Zm-69.9,13.035a12.315,12.315,0,0,1-3.854-2.31,11.2,11.2,0,0,1-2.6-3.436,9.438,9.438,0,0,1-.969-4.208,9.481,9.481,0,0,1,.946-4.187,10.663,10.663,0,0,1,2.571-3.387,12.3,12.3,0,0,1,3.854-2.272,13.378,13.378,0,0,1,4.767-.838,13.651,13.651,0,0,1,4.789.828,12.36,12.36,0,0,1,3.864,2.262,10.6,10.6,0,0,1,2.583,3.4,9.489,9.489,0,0,1,.946,4.2,9.485,9.485,0,0,1-.969,4.227,10.917,10.917,0,0,1-2.628,3.426,12.733,12.733,0,0,1-3.876,2.3,13.064,13.064,0,0,1-4.71.847,13.055,13.055,0,0,1-4.708-.846Zm2.4-18.212a5.206,5.206,0,0,0-1.671,1.829,9.743,9.743,0,0,0-1.013,2.821,17.665,17.665,0,0,0-.346,3.609,17.112,17.112,0,0,0,.357,3.6,10.152,10.152,0,0,0,1.037,2.859,5.518,5.518,0,0,0,1.683,1.887,3.864,3.864,0,0,0,2.271.684,3.973,3.973,0,0,0,2.305-.684,5.493,5.493,0,0,0,1.659-1.887,10.208,10.208,0,0,0,1.012-2.859h0a17.611,17.611,0,0,0,.345-3.6,18.721,18.721,0,0,0-.324-3.609,9.518,9.518,0,0,0-.98-2.821A5.079,5.079,0,0,0,4378.843-10a4.274,4.274,0,0,0-2.351-.655,4.142,4.142,0,0,0-2.318.661ZM4279.084,8.69a6.091,6.091,0,0,1-1.949-.982,4.677,4.677,0,0,1-1.3-1.539,4.251,4.251,0,0,1-.48-2.022,5.142,5.142,0,0,1,.891-2.849,8.225,8.225,0,0,1,2.662-2.455,17.8,17.8,0,0,1,4.465-1.848,33.044,33.044,0,0,1,6.281-1.05q0-1.346.009-2.541t.011-2.079a1.872,1.872,0,0,0-.579-1.4,2.553,2.553,0,0,0-1.849-.568,2.968,2.968,0,0,0-2.328.9,14.422,14.422,0,0,0-1.48,1.974,12.534,12.534,0,0,1-1.526,1.975,3.225,3.225,0,0,1-2.459.9,3.059,3.059,0,0,1-1.937-.626,1.994,1.994,0,0,1-.8-1.666,2.9,2.9,0,0,1,.9-2.013,7.787,7.787,0,0,1,2.417-1.656,16.046,16.046,0,0,1,3.542-1.116,21.024,21.024,0,0,1,4.231-.414,19.823,19.823,0,0,1,3.429.269,9.042,9.042,0,0,1,2.6.818,4.3,4.3,0,0,1,1.625,1.387,3.422,3.422,0,0,1,.568,1.974q0,1.271-.034,2.926t-.066,3.388c-.023,1.154-.043,2.31-.067,3.464s-.032,2.207-.032,3.157a1.369,1.369,0,0,0,.546,1.174,2.017,2.017,0,0,0,1.234.4,3.434,3.434,0,0,0,1.1-.164h0a2.941,2.941,0,0,0,.9-.511l.466.674a4.247,4.247,0,0,1-1.058,1.011,7.174,7.174,0,0,1-1.427.76,8.689,8.689,0,0,1-1.625.473,8.922,8.922,0,0,1-1.681.164,8.328,8.328,0,0,1-1.637-.164,4.822,4.822,0,0,1-1.447-.53,3.518,3.518,0,0,1-1.068-.943,2.8,2.8,0,0,1-.523-1.4h-.066a13.422,13.422,0,0,1-4.009,2.368,12.1,12.1,0,0,1-4.076.712,8.047,8.047,0,0,1-2.374-.327Zm6.848-10.442a7.738,7.738,0,0,0-2.372,1.2,4.163,4.163,0,0,0-1.26,1.562,4.461,4.461,0,0,0-.378,1.821,3.343,3.343,0,0,0,.824,2.416,2.942,2.942,0,0,0,2.229.857,7.391,7.391,0,0,0,2.439-.423,9.171,9.171,0,0,0,2.171-1.078v.02q0-1.559.011-3.427h0q.01-1.865.032-3.676a17.541,17.541,0,0,0-3.7.727ZM4405.768,8.383V7.67a4.81,4.81,0,0,0,2.04-1.435,3.324,3.324,0,0,0,.7-2.109V-5.345a3.882,3.882,0,0,0-.656-2.445,3.66,3.66,0,0,0-2.082-1.173v-.751a16.537,16.537,0,0,0,2.3-.4,21.83,21.83,0,0,0,2.25-.684,16.048,16.048,0,0,0,2.04-.9,12.717,12.717,0,0,0,1.67-1.05h.848V-10.5a8.326,8.326,0,0,1-.078,1.135c-.054.385-.086.673-.1.866l.179.1a9.2,9.2,0,0,1,1.181-1.493,9.558,9.558,0,0,1,1.569-1.32,8.763,8.763,0,0,1,1.8-.934,5.323,5.323,0,0,1,1.882-.357,3.934,3.934,0,0,1,1.314.222,3.479,3.479,0,0,1,1.092.616v.006a2.984,2.984,0,0,1,.746.943,2.631,2.631,0,0,1,.278,1.2,2.637,2.637,0,0,1-.255,1.174,2.834,2.834,0,0,1-.668.885,2.921,2.921,0,0,1-.937.558,3.055,3.055,0,0,1-1.058.193,3.092,3.092,0,0,1-1.371-.28A8.333,8.333,0,0,1,4419.4-7.6c-.327-.224-.656-.431-.991-.616a2.321,2.321,0,0,0-1.149-.28,1.95,1.95,0,0,0-1.233.473A13.638,13.638,0,0,0,4414.88-7V4.129a3.092,3.092,0,0,0,.768,2.1,5.8,5.8,0,0,0,1.972,1.443v.712Zm-69.971,0V7.67a6.293,6.293,0,0,0,1.917-1.453,3.152,3.152,0,0,0,.667-2.09V-5.961a3.212,3.212,0,0,0-.623-2.147,2.389,2.389,0,0,0-1.872-.741,7.053,7.053,0,0,0-2.572.558,22.86,22.86,0,0,0-3.284,1.616v10.8a2.96,2.96,0,0,0,.734,2.089,7.55,7.55,0,0,0,1.917,1.455v.712H4320.92V7.669a4.714,4.714,0,0,0,2.006-1.366,3.3,3.3,0,0,0,.734-2.176V-5.345a3.971,3.971,0,0,0-.635-2.445,3.587,3.587,0,0,0-2.1-1.173v-.751a16.483,16.483,0,0,0,2.328-.4,21.785,21.785,0,0,0,2.25-.684,15.985,15.985,0,0,0,2.039-.9,14.159,14.159,0,0,0,1.692-1.05h.8V-10.5c0,.45-.02.9-.057,1.366s-.063.821-.078,1.077l.133.039a23.9,23.9,0,0,1,2.026-1.512,21.458,21.458,0,0,1,2.5-1.455,18.169,18.169,0,0,1,2.695-1.088,8.659,8.659,0,0,1,2.6-.434,4.954,4.954,0,0,1,3.609,1.243,4.34,4.34,0,0,1,1.268,3.244v.154a25.7,25.7,0,0,1,2.093-1.57,24.165,24.165,0,0,1,2.528-1.5,17.585,17.585,0,0,1,2.705-1.126,8.528,8.528,0,0,1,2.6-.443,4.749,4.749,0,0,1,3.586,1.251,4.525,4.525,0,0,1,1.2,3.272v12.1a3.726,3.726,0,0,0,.645,2.2,3.718,3.718,0,0,0,1.738,1.34v.712h-11.271V7.666a6.5,6.5,0,0,0,1.959-1.455v.007a3.084,3.084,0,0,0,.69-2.089V-5.959a3.173,3.173,0,0,0-.635-2.128,2.281,2.281,0,0,0-1.792-.761,8.129,8.129,0,0,0-2.672.5,23.172,23.172,0,0,0-3.386,1.5V4.127a3.376,3.376,0,0,0,.668,2.147,4.88,4.88,0,0,0,1.8,1.4v.712Zm-35.1,0V7.67a4.8,4.8,0,0,0,2.039-1.435,3.321,3.321,0,0,0,.7-2.109V-5.345a3.882,3.882,0,0,0-.656-2.445,3.662,3.662,0,0,0-2.082-1.173v-.751a16.58,16.58,0,0,0,2.3-.4,21.828,21.828,0,0,0,2.25-.684,15.93,15.93,0,0,0,2.039-.9,12.7,12.7,0,0,0,1.671-1.05h.848V-10.5a8.327,8.327,0,0,1-.08,1.135c-.052.385-.086.673-.1.866l.179.1a9.169,9.169,0,0,1,1.181-1.493,9.432,9.432,0,0,1,1.569-1.32,8.728,8.728,0,0,1,1.8-.934,5.322,5.322,0,0,1,1.883-.357,3.934,3.934,0,0,1,1.314.222,3.479,3.479,0,0,1,1.092.616v.006a3,3,0,0,1,.746.943,2.624,2.624,0,0,1,.278,1.2,2.637,2.637,0,0,1-.255,1.174,2.847,2.847,0,0,1-.668.885,2.9,2.9,0,0,1-.937.558,3.05,3.05,0,0,1-1.059.193,3.09,3.09,0,0,1-1.37-.28,8.331,8.331,0,0,1-1.058-.616c-.326-.224-.656-.431-.99-.616a2.32,2.32,0,0,0-1.148-.28,1.949,1.949,0,0,0-1.234.473A13.479,13.479,0,0,0,4309.8-7V4.129a3.1,3.1,0,0,0,.768,2.1,5.8,5.8,0,0,0,1.97,1.443v.712Zm91.135,0V7.668a3.861,3.861,0,0,0,2-1.28,3.5,3.5,0,0,0,.736-2.263V-5.347a4.891,4.891,0,0,0-.523-2.244,2.957,2.957,0,0,0-2.217-1.376v-.751a17.228,17.228,0,0,0,2.328-.4,21.686,21.686,0,0,0,2.285-.684,16.973,16.973,0,0,0,2.07-.9,13.569,13.569,0,0,0,1.715-1.049h.825V4.123a3.655,3.655,0,0,0,.7,2.272h0a3.544,3.544,0,0,0,1.837,1.27V8.38Zm-140.462-2.6V5.07a3.7,3.7,0,0,0,1.771-1.308,3.738,3.738,0,0,0,.635-2.233V-18.185a4.342,4.342,0,0,0-.613-2.263,3.272,3.272,0,0,0-2.148-1.416v-.712a18,18,0,0,0,2.339-.4,19.155,19.155,0,0,0,2.261-.684,17.9,17.9,0,0,0,2.038-.9,13.5,13.5,0,0,0,1.692-1.039h.869V1.527a3.448,3.448,0,0,0,.711,2.233h0a4.151,4.151,0,0,0,1.937,1.308V5.78Zm17.7-19.368a18.749,18.749,0,0,0-.734-3.041q-.447-1.291-.835-2.3t-.679-1.9a5.968,5.968,0,0,1-.289-1.867,2.67,2.67,0,0,1,.2-1.011,2.453,2.453,0,0,1,.6-.866,3.038,3.038,0,0,1,.99-.607,3.679,3.679,0,0,1,1.348-.231,3.586,3.586,0,0,1,1.336.231,2.976,2.976,0,0,1,.97.607h-.006a2.509,2.509,0,0,1,.59.866,2.622,2.622,0,0,1,.2,1.011,6.011,6.011,0,0,1-.288,1.867q-.288.886-.7,1.906t-.857,2.3a18.377,18.377,0,0,0-.734,3.032Zm126.867-4.4a3.792,3.792,0,0,1-1.225-.712h0a3.439,3.439,0,0,1-.814-1.059,2.828,2.828,0,0,1-.3-1.28,2.994,2.994,0,0,1,1.113-2.349,4.069,4.069,0,0,1,2.761-.962,4.3,4.3,0,0,1,1.5.261,4.2,4.2,0,0,1,1.235.7,3.216,3.216,0,0,1,.834,1.049,2.913,2.913,0,0,1,.3,1.3,2.854,2.854,0,0,1-.3,1.28,3.262,3.262,0,0,1-.835,1.059,4.1,4.1,0,0,1-1.234.712,4.23,4.23,0,0,1-1.5.26,4.45,4.45,0,0,1-1.537-.26Z" transform="translate(-4251.014 25.599)" fill="#000"/>
</svg>
