<svg xmlns="http://www.w3.org/2000/svg" xmlns:xlink="http://www.w3.org/1999/xlink" width="195.865" height="61.148" viewBox="0 0 195.865 61.148">
  <defs>
    <clipPath id="clip-path">
      <rect id="Rectangle_2894" data-name="Rectangle 2894" width="195.865" height="61.148" fill="none"/>
    </clipPath>
  </defs>
  <g id="Groupe_5703" data-name="Groupe 5703" transform="translate(0 0)">
    <g id="Groupe_5703-2" data-name="Groupe 5703" transform="translate(0 0)" clip-path="url(#clip-path)">
      <path id="Tracé_6386" data-name="Tracé 6386" d="M8.92,0V31.836a4.631,4.631,0,0,0,.692,2.622,4.1,4.1,0,0,0,1.878,1.536v.836H.346v-.836a3.741,3.741,0,0,0,1.716-1.536,5.072,5.072,0,0,0,.616-2.622V8.7a5.932,5.932,0,0,0-.6-2.655A3.223,3.223,0,0,0,0,4.384V3.547a14.569,14.569,0,0,0,2.268-.463,15.894,15.894,0,0,0,2.19-.8A15.949,15.949,0,0,0,6.436,1.22,12.635,12.635,0,0,0,8.077,0Z" transform="translate(0 0)" fill="#040506"/>
      <path id="Tracé_6387" data-name="Tracé 6387" d="M9.484,3.328a3.686,3.686,0,0,1,.2-1.187A2.891,2.891,0,0,1,11.223.413,3.007,3.007,0,0,1,12.53.143a2.938,2.938,0,0,1,1.3.27,2.83,2.83,0,0,1,.94.713,3.032,3.032,0,0,1,.573,1.016,3.686,3.686,0,0,1,.2,1.187,8.438,8.438,0,0,1-.281,2.192q-.281,1.038-.681,2.236t-.832,2.7a25.682,25.682,0,0,0-.714,3.56H11.947a26.081,26.081,0,0,0-.713-3.571q-.433-1.512-.811-2.7T9.765,5.52a8.438,8.438,0,0,1-.281-2.192" transform="translate(5.568 0.083)" fill="#040506"/>
      <path id="Tracé_6388" data-name="Tracé 6388" d="M28.63,29.3a12.732,12.732,0,0,1-3.887,2.779,9.914,9.914,0,0,1-3.952.835,6.514,6.514,0,0,1-2.3-.406,5.609,5.609,0,0,1-1.89-1.152,5.41,5.41,0,0,1-1.265-1.808,5.861,5.861,0,0,1-.463-2.373,6.958,6.958,0,0,1,.863-3.344,8.918,8.918,0,0,1,2.581-2.881,15.806,15.806,0,0,1,4.331-2.17,27.162,27.162,0,0,1,6.091-1.232q0-1.581.01-2.982t.011-2.439a2.452,2.452,0,0,0-.562-1.638,2.217,2.217,0,0,0-1.792-.667,2.641,2.641,0,0,0-2.257,1.062A16.669,16.669,0,0,0,22.713,13.2a14.834,14.834,0,0,1-1.479,2.316,2.851,2.851,0,0,1-2.387,1.062,2.64,2.64,0,0,1-1.879-.733,2.564,2.564,0,0,1-.778-1.955,3.78,3.78,0,0,1,.874-2.362,7.718,7.718,0,0,1,2.344-1.943,13.792,13.792,0,0,1,3.435-1.311,17.035,17.035,0,0,1,4.1-.486,16.038,16.038,0,0,1,3.325.317,7.679,7.679,0,0,1,2.517.96,4.52,4.52,0,0,1,1.578,1.627,4.666,4.666,0,0,1,.549,2.316q0,1.49-.032,3.435t-.065,3.976q-.033,2.033-.063,4.068t-.033,3.706a1.72,1.72,0,0,0,1.727,1.852,2.772,2.772,0,0,0,1.07-.192,2.722,2.722,0,0,0,.876-.6l.452.79a4.536,4.536,0,0,1-1.027,1.186,6.644,6.644,0,0,1-1.382.894,7.387,7.387,0,0,1-1.576.554,7.281,7.281,0,0,1-1.63.192,6.732,6.732,0,0,1-1.587-.192,4.144,4.144,0,0,1-1.4-.622A3.6,3.6,0,0,1,28.7,29.3Zm-7.386-3.661a4.452,4.452,0,0,0,.8,2.836,2.615,2.615,0,0,0,2.16,1,6.023,6.023,0,0,0,2.363-.5,8.4,8.4,0,0,0,2.108-1.265v.022q0-1.831.01-4.022t.033-4.315a14.463,14.463,0,0,0-3.585.859,7.136,7.136,0,0,0-2.3,1.411A4.884,4.884,0,0,0,21.61,23.5a6.176,6.176,0,0,0-.367,2.135" transform="translate(8.732 4.571)" fill="#040506"/>
      <path id="Tracé_6389" data-name="Tracé 6389" d="M40.008,10.218a11.944,11.944,0,0,1-.076,1.333c-.049.452-.083.79-.1,1.016l.171.114a10.566,10.566,0,0,1,1.146-1.752,10.035,10.035,0,0,1,1.522-1.547,7.919,7.919,0,0,1,1.749-1.1,4.364,4.364,0,0,1,1.825-.419,3.193,3.193,0,0,1,1.273.26,3.256,3.256,0,0,1,1.059.724,3.447,3.447,0,0,1,.724,1.106,3.892,3.892,0,0,1,.022,2.79,3.34,3.34,0,0,1-.648,1.04,2.78,2.78,0,0,1-.906.655,2.506,2.506,0,0,1-1.027.225,2.549,2.549,0,0,1-1.328-.327,8.005,8.005,0,0,1-1.025-.722q-.476-.4-.962-.724a1.94,1.94,0,0,0-1.113-.329,1.717,1.717,0,0,0-1.2.554,14.4,14.4,0,0,0-1.113,1.209V27.389a4.1,4.1,0,0,0,.746,2.463,5.8,5.8,0,0,0,1.911,1.7v.836H31.176v-.836a4.781,4.781,0,0,0,1.976-1.684,4.459,4.459,0,0,0,.679-2.474V16.273a5.267,5.267,0,0,0-.636-2.869,3.475,3.475,0,0,0-2.019-1.378v-.882a13.708,13.708,0,0,0,2.235-.473,18.538,18.538,0,0,0,2.181-.8,14.326,14.326,0,0,0,1.976-1.062,12.143,12.143,0,0,0,1.62-1.232h.821Z" transform="translate(18.304 4.446)" fill="#040506"/>
      <path id="Tracé_6390" data-name="Tracé 6390" d="M71.169,20.3a13.083,13.083,0,0,1,.919-4.914,12.546,12.546,0,0,1,2.493-3.977,11.707,11.707,0,0,1,3.736-2.666,11.029,11.029,0,0,1,4.623-.982,11.184,11.184,0,0,1,4.642.971,11.671,11.671,0,0,1,3.747,2.655,12.468,12.468,0,0,1,2.506,3.987,13.215,13.215,0,0,1,.917,4.926,13.06,13.06,0,0,1-.94,4.96,12.822,12.822,0,0,1-2.547,4.022,12.107,12.107,0,0,1-3.758,2.7,10.981,10.981,0,0,1-9.135,0,11.713,11.713,0,0,1-3.738-2.711,13.181,13.181,0,0,1-2.527-4.033,13,13,0,0,1-.94-4.937m6.587,0a24.177,24.177,0,0,0,.346,4.225,13.5,13.5,0,0,0,1,3.355,6.2,6.2,0,0,0,1.63,2.214,3.469,3.469,0,0,0,4.439,0,6.161,6.161,0,0,0,1.608-2.214,13.522,13.522,0,0,0,.984-3.355A25.017,25.017,0,0,0,88.1,20.3a26.448,26.448,0,0,0-.314-4.236,12.847,12.847,0,0,0-.949-3.311,5.694,5.694,0,0,0-1.62-2.146,3.591,3.591,0,0,0-2.278-.768,3.509,3.509,0,0,0-2.246.768,5.812,5.812,0,0,0-1.622,2.146,13.123,13.123,0,0,0-.982,3.311,24.8,24.8,0,0,0-.335,4.236" transform="translate(41.784 4.555)" fill="#040506"/>
      <path id="Tracé_6391" data-name="Tracé 6391" d="M88.261,36.287V35.45a3.757,3.757,0,0,0,1.944-1.5,4.7,4.7,0,0,0,.713-2.655V20.176a6.733,6.733,0,0,0-.508-2.631,2.881,2.881,0,0,0-2.149-1.616v-.882a14.212,14.212,0,0,0,2.257-.473,18.549,18.549,0,0,0,2.214-.8,15.188,15.188,0,0,0,2.008-1.062A12.606,12.606,0,0,0,96.4,11.477h.8V31.292a4.926,4.926,0,0,0,.681,2.668,3.508,3.508,0,0,0,1.781,1.49v.836ZM93.7,8.7a3.642,3.642,0,0,1-1.489-.3,3.574,3.574,0,0,1-1.189-.836,4.018,4.018,0,0,1-.789-1.243,3.907,3.907,0,0,1-.29-1.5,3.84,3.84,0,0,1,1.079-2.757,3.708,3.708,0,0,1,4.136-.824,3.994,3.994,0,0,1,1.2.824,3.756,3.756,0,0,1,.811,1.232,4,4,0,0,1,.29,1.525,3.936,3.936,0,0,1-.29,1.5,3.867,3.867,0,0,1-2.009,2.079,3.528,3.528,0,0,1-1.459.3" transform="translate(51.819 0.543)" fill="#040506"/>
      <path id="Tracé_6392" data-name="Tracé 6392" d="M106.32,10.218a11.941,11.941,0,0,1-.076,1.333c-.049.452-.083.79-.1,1.016l.171.114a10.566,10.566,0,0,1,1.146-1.752,10.036,10.036,0,0,1,1.522-1.547,7.919,7.919,0,0,1,1.749-1.1,4.364,4.364,0,0,1,1.825-.419,3.193,3.193,0,0,1,1.273.26,3.256,3.256,0,0,1,1.059.724,3.448,3.448,0,0,1,.724,1.106,3.892,3.892,0,0,1,.022,2.79,3.34,3.34,0,0,1-.648,1.04,2.78,2.78,0,0,1-.906.655,2.506,2.506,0,0,1-1.027.225,2.549,2.549,0,0,1-1.328-.327,8.007,8.007,0,0,1-1.025-.722q-.476-.4-.962-.724a1.94,1.94,0,0,0-1.113-.329,1.717,1.717,0,0,0-1.2.554,14.4,14.4,0,0,0-1.113,1.209V27.389a4.1,4.1,0,0,0,.746,2.463,5.8,5.8,0,0,0,1.911,1.7v.836H97.488v-.836a4.782,4.782,0,0,0,1.976-1.684,4.459,4.459,0,0,0,.679-2.474V16.273a5.267,5.267,0,0,0-.636-2.869,3.475,3.475,0,0,0-2.019-1.378v-.882a13.709,13.709,0,0,0,2.235-.473,18.537,18.537,0,0,0,2.181-.8,14.324,14.324,0,0,0,1.976-1.062,12.144,12.144,0,0,0,1.62-1.232h.821Z" transform="translate(57.236 4.446)" fill="#040506"/>
      <path id="Tracé_6393" data-name="Tracé 6393" d="M130.867,25.473a10.326,10.326,0,0,1-1.479,3.187,9.894,9.894,0,0,1-2.29,2.349,10.3,10.3,0,0,1-2.85,1.459,10,10,0,0,1-3.141.508,10.8,10.8,0,0,1-3.952-.757,10.167,10.167,0,0,1-3.457-2.236,11.177,11.177,0,0,1-2.452-3.728,13.357,13.357,0,0,1-.94-5.187,15.3,15.3,0,0,1,.865-5.163,13.364,13.364,0,0,1,2.385-4.225,11.52,11.52,0,0,1,3.628-2.858,10.011,10.011,0,0,1,4.569-1.062,9.543,9.543,0,0,1,3.7.713,8.83,8.83,0,0,1,2.969,1.987,9.1,9.1,0,0,1,1.965,3.084,10.739,10.739,0,0,1,.714,3.977v1.243h-15.1a14.548,14.548,0,0,0,.67,4.384,9.091,9.091,0,0,0,1.673,3.095A6.626,6.626,0,0,0,120.8,28.06a7.566,7.566,0,0,0,3,.6,7.145,7.145,0,0,0,3.606-.949,8,8,0,0,0,2.766-2.644ZM120.7,10.063a3.416,3.416,0,0,0-1.587.4,4.281,4.281,0,0,0-1.393,1.2,6.842,6.842,0,0,0-1.048,2.055,12.926,12.926,0,0,0-.571,2.971h8.68a9.174,9.174,0,0,0-1.1-4.812,3.359,3.359,0,0,0-2.981-1.808" transform="translate(64.762 4.555)" fill="#040506"/>
      <path id="Tracé_6394" data-name="Tracé 6394" d="M41.455,42.7l-1.2-2.239H34.329L33.115,42.7H31.936l4.884-8.959h1.014l4.8,8.959Zm-4.136-7.726-2.343,4.306h4.652Zm-.283-2.258-1.628-1.859h1.778l1.13,1.859Z" transform="translate(18.75 18.117)" fill="#040506"/>
      <path id="Tracé_6395" data-name="Tracé 6395" d="M47.349,41.635V32.674h1.114v7.78h5.6v1.181Z" transform="translate(27.799 19.183)" fill="#040506"/>
      <path id="Tracé_6396" data-name="Tracé 6396" d="M59.818,42.08c-2.757,0-5.249-1.789-5.249-4.863,0-2.952,2.576-4.739,5.2-4.739,2.708,0,5.333,1.824,5.333,4.879,0,3.074-2.59,4.723-5.283,4.723m-.049-8.4c-1.993,0-4.087,1.249-4.087,3.558,0,2.414,2.06,3.665,4.171,3.665,2.043,0,4.119-1.165,4.119-3.542,0-2.414-2.109-3.681-4.2-3.681" transform="translate(32.038 19.068)" fill="#040506"/>
      <path id="Tracé_6397" data-name="Tracé 6397" d="M69.432,41.879c-2.392,0-4.169-1.008-4.169-3.734V32.675h1.13v5.469c0,2.049,1.346,2.554,3.073,2.554,1.7,0,3.008-.555,3.008-2.554V32.675h1.113v5.469c0,2.693-1.778,3.734-4.153,3.734" transform="translate(38.317 19.183)" fill="#040506"/>
      <path id="Tracé_6398" data-name="Tracé 6398" d="M74.94,41.635V32.674h7.544v1.182H76.053v2.6h3.688V37.64H76.053v2.8h6.612v1.2Z" transform="translate(43.998 19.183)" fill="#040506"/>
      <path id="Tracé_6399" data-name="Tracé 6399" d="M91.243,41.634,88.8,38.006H84.98v3.628H83.866V32.675H89.2c1.644,0,3.274.678,3.274,2.657a2.608,2.608,0,0,1-2.327,2.589l2.509,3.714ZM89.2,33.856H84.98v2.987H89.2c1,0,2.144-.243,2.144-1.511S90.18,33.856,89.2,33.856" transform="translate(49.239 19.183)" fill="#040506"/>
      <path id="Tracé_6400" data-name="Tracé 6400" d="M82.012,29.977a5.034,5.034,0,0,1-.627-2.587V13.177a5.99,5.99,0,0,0-1.167-3.841,4.171,4.171,0,0,0-3.476-1.47,7.012,7.012,0,0,0-2.528.521,15.575,15.575,0,0,0-2.623,1.322,22.973,22.973,0,0,0-2.45,1.762,25.931,25.931,0,0,0-2.032,1.841v-.179a5.7,5.7,0,0,0-1.23-3.807,4.326,4.326,0,0,0-3.5-1.459,7.121,7.121,0,0,0-2.527.509A16.335,16.335,0,0,0,57.24,9.652a20.423,20.423,0,0,0-2.42,1.706,25.068,25.068,0,0,0-1.965,1.774l-.13-.046c.016-.3.04-.724.076-1.265s.054-1.078.054-1.6V7.573h-.778A13.178,13.178,0,0,1,50.435,8.8a14.152,14.152,0,0,1-1.976,1.063,18.608,18.608,0,0,1-2.181.8,13.586,13.586,0,0,1-2.257.475v.881A3.392,3.392,0,0,1,46.064,13.4a5.436,5.436,0,0,1,.614,2.868V27.39a4.414,4.414,0,0,1-.713,2.554,4.659,4.659,0,0,1-1.944,1.6v.836h11.4v-.836a7.646,7.646,0,0,1-1.857-1.7,3.939,3.939,0,0,1-.713-2.452V14.713a20.92,20.92,0,0,1,3.185-1.9,5.831,5.831,0,0,1,2.495-.655,2.138,2.138,0,0,1,1.814.871,4.34,4.34,0,0,1,.6,2.519v9.667a6.354,6.354,0,0,1,6.156.336V14.51a20.644,20.644,0,0,1,3.284-1.762,6.649,6.649,0,0,1,2.592-.589,2.066,2.066,0,0,1,1.738.894,4.283,4.283,0,0,1,.616,2.5V27.39a4.131,4.131,0,0,1-.67,2.452,6.539,6.539,0,0,1-1.9,1.7v.836H83.7v-.836a3.772,3.772,0,0,1-1.686-1.57" transform="translate(25.845 4.446)" fill="#040506"/>
      <path id="Tracé_6401" data-name="Tracé 6401" d="M58.647,19.041S58,25.547,64.809,25.453c0,0-5.988-.682-6.117,6.288,0,0,.268-6.2-6.1-6.336,0,0,6.083.682,6.052-6.364" transform="translate(30.879 11.179)" fill="#040506"/>
    </g>
  </g>
</svg>
