<svg xmlns="http://www.w3.org/2000/svg" xmlns:xlink="http://www.w3.org/1999/xlink" width="44.297" height="45.297" viewBox="0 0 44.297 45.297">
  <defs>
    <clipPath id="clip-path">
      <rect id="Rectangle_57" data-name="Rectangle 57" width="44.297" height="45.297" transform="translate(0 0)" fill="#1a1a1a"/>
    </clipPath>
  </defs>
  <g id="Groupe_7" data-name="Groupe 7" transform="translate(0)">
    <g id="Groupe_6" data-name="Groupe 6" transform="translate(0 0)" clip-path="url(#clip-path)">
      <path id="Tracé_7" data-name="Tracé 7" d="M663.075,27.451c-7.119,0-13.584-4.955-13.748-13.772a13.734,13.734,0,0,1,27.468-.025c-.141,8.779-6.58,13.8-13.72,13.8M663.1,1.695c-6.246-.02-12,4.319-12.157,12.148a12.118,12.118,0,0,0,24.234.076C675.083,6.2,669.448,1.713,663.1,1.695" transform="translate(-632.5 -0.004)" fill="#1a1a1a"/>
      <path id="Tracé_8" data-name="Tracé 8" d="M9.932,879.174A9.756,9.756,0,0,1,0,869.245a9.907,9.907,0,0,1,19.814-.033,9.668,9.668,0,0,1-9.883,9.963m-.008-18.127a8.162,8.162,0,0,0-8.3,8.336,8.3,8.3,0,0,0,16.592.018,8.163,8.163,0,0,0-8.289-8.354" transform="translate(0 -837.118)" fill="#1a1a1a"/>
      <path id="Tracé_9" data-name="Tracé 9" d="M964.554,1194.236a7.206,7.206,0,0,1-7.493-7.141,7.379,7.379,0,0,1,14.742-.646,7.237,7.237,0,0,1-7.249,7.787m-.116-13.079a5.669,5.669,0,0,0-5.772,5.8,5.766,5.766,0,0,0,11.532.009,5.659,5.659,0,0,0-5.76-5.811" transform="translate(-932.253 -1148.939)" fill="#1a1a1a"/>
      <path id="Tracé_10" data-name="Tracé 10" d="M122.049,295.427a4.812,4.812,0,1,1,4.872-4.789,4.721,4.721,0,0,1-4.872,4.789m0-1.6a3.208,3.208,0,1,0-3.221-3.206,3.241,3.241,0,0,0,3.221,3.206" transform="translate(-114.173 -278.399)" fill="#1a1a1a"/>
      <path id="Tracé_11" data-name="Tracé 11" d="M1149.913,125.181a10.541,10.541,0,0,1,10.02,9.2c.041.368.078.738.087,1.108.016.643-.277,1.012-.783,1.024s-.817-.354-.833-.987a8.615,8.615,0,0,0-1.523-4.791,8.775,8.775,0,0,0-7-3.927c-.8-.049-1.2-.32-1.169-.862s.428-.78,1.2-.761" transform="translate(-1118.943 -121.936)" fill="#1a1a1a"/>
      <path id="Tracé_12" data-name="Tracé 12" d="M131.464,1218.945a6.727,6.727,0,0,1-6.445-6.414c-.013-.66.291-1.059.806-1.059.491,0,.79.37.817,1.009a5.064,5.064,0,0,0,4.882,4.842c.613.029,1,.368.968.858s-.4.769-1,.764h-.031" transform="translate(-121.779 -1180.082)" fill="#1a1a1a"/>
    </g>
  </g>
</svg>
