<svg xmlns="http://www.w3.org/2000/svg" width="17" height="21" viewBox="0 0 17 21">
  <path id="bag" d="M15.945,0A2.776,2.776,0,0,0,13.21,2.8V4.452h-2.8a.386.386,0,0,0-.062,0,.648.648,0,0,0-.576.6L8.491,20.289a.663.663,0,0,0,.166.5A.632.632,0,0,0,9.128,21h15.72a.634.634,0,0,0,.472-.212.669.669,0,0,0,.166-.5L24.206,5.052a.647.647,0,0,0-.637-.6h-2.8V2.8A2.773,2.773,0,0,0,18.036,0Zm0,1.312h2.092A1.451,1.451,0,0,1,19.488,2.8V4.452h-5V2.8a1.455,1.455,0,0,1,1.455-1.488ZM10.993,5.765h2.216V7.712h0a.64.64,0,1,0,1.28,0V5.765h5V7.713a.64.64,0,1,0,1.28,0V5.766h2.216l1.166,13.922H9.828Z" transform="translate(-8.488)" fill="#000"/>
</svg>
